solid OpenSCAD_Model
  facet normal 0 0 -1
    outer loop
      vertex -30 0 0
      vertex -29.6306 4.69303 0
      vertex -29.6306 -4.69303 0
    endloop
  endfacet
  facet normal 0 0 -1
    outer loop
      vertex -29.6306 -4.69303 0
      vertex -29.6306 4.69303 0
      vertex -28.5317 9.27051 0
    endloop
  endfacet
  facet normal 0 0 -1
    outer loop
      vertex -29.6306 -4.69303 0
      vertex -28.5317 9.27051 0
      vertex -26.7302 13.6197 0
    endloop
  endfacet
  facet normal 0 0 -1
    outer loop
      vertex -29.6306 -4.69303 0
      vertex -26.7302 13.6197 0
      vertex -24.2705 17.6336 0
    endloop
  endfacet
  facet normal 0 0 -1
    outer loop
      vertex -29.6306 -4.69303 0
      vertex -24.2705 17.6336 0
      vertex -21.2132 21.2132 0
    endloop
  endfacet
  facet normal 0 0 -1
    outer loop
      vertex -29.6306 -4.69303 0
      vertex -21.2132 21.2132 0
      vertex -17.6336 24.2705 0
    endloop
  endfacet
  facet normal 0 0 -1
    outer loop
      vertex -29.6306 -4.69303 0
      vertex -17.6336 24.2705 0
      vertex -13.6197 26.7302 0
    endloop
  endfacet
  facet normal 0 0 -1
    outer loop
      vertex -29.6306 -4.69303 0
      vertex -13.6197 26.7302 0
      vertex -9.27051 28.5317 0
    endloop
  endfacet
  facet normal 0 0 -1
    outer loop
      vertex -29.6306 -4.69303 0
      vertex -9.27051 28.5317 0
      vertex -4.69303 29.6306 0
    endloop
  endfacet
  facet normal 0 0 -1
    outer loop
      vertex -29.6306 -4.69303 0
      vertex -4.69303 29.6306 0
      vertex 0 30 0
    endloop
  endfacet
  facet normal 0 0 -1
    outer loop
      vertex -29.6306 -4.69303 0
      vertex 0 30 0
      vertex 4.69303 29.6306 0
    endloop
  endfacet
  facet normal 0 0 -1
    outer loop
      vertex -29.6306 -4.69303 0
      vertex 4.69303 29.6306 0
      vertex 9.27051 28.5317 0
    endloop
  endfacet
  facet normal 0 0 -1
    outer loop
      vertex -29.6306 -4.69303 0
      vertex 9.27051 28.5317 0
      vertex 13.6197 26.7302 0
    endloop
  endfacet
  facet normal 0 0 -1
    outer loop
      vertex -29.6306 -4.69303 0
      vertex 13.6197 26.7302 0
      vertex 17.6336 24.2705 0
    endloop
  endfacet
  facet normal 0 0 -1
    outer loop
      vertex -29.6306 -4.69303 0
      vertex 17.6336 24.2705 0
      vertex 21.2132 21.2132 0
    endloop
  endfacet
  facet normal 0 0 -1
    outer loop
      vertex -29.6306 -4.69303 0
      vertex 21.2132 21.2132 0
      vertex 24.2705 17.6336 0
    endloop
  endfacet
  facet normal 0 0 -1
    outer loop
      vertex -29.6306 -4.69303 0
      vertex 24.2705 17.6336 0
      vertex 26.7302 13.6197 0
    endloop
  endfacet
  facet normal 0 0 -1
    outer loop
      vertex 0.313585 2.98357 0
      vertex 26.7302 13.6197 0
      vertex 28.5317 9.27051 0
    endloop
  endfacet
  facet normal 0 0 -1
    outer loop
      vertex 2.42705 1.76336 0
      vertex 28.5317 9.27051 0
      vertex 29.6306 4.69303 0
    endloop
  endfacet
  facet normal 0 0 -1
    outer loop
      vertex 10.1622 0.809017 0
      vertex 3 0 0
      vertex 10.441 0.951057 0
    endloop
  endfacet
  facet normal 0 0 -1
    outer loop
      vertex 1.5 -2.59808 0
      vertex 30 0 0
      vertex 29.6306 -4.69303 0
    endloop
  endfacet
  facet normal 0 0 -1
    outer loop
      vertex -29.6306 -4.69303 0
      vertex 29.6306 -4.69303 0
      vertex 28.5317 -9.27051 0
    endloop
  endfacet
  facet normal 0 0 -1
    outer loop
      vertex -29.6306 -4.69303 0
      vertex 28.5317 -9.27051 0
      vertex 26.7302 -13.6197 0
    endloop
  endfacet
  facet normal 0 0 -1
    outer loop
      vertex -29.6306 -4.69303 0
      vertex 26.7302 -13.6197 0
      vertex 24.2705 -17.6336 0
    endloop
  endfacet
  facet normal 0 0 -1
    outer loop
      vertex -29.6306 -4.69303 0
      vertex 24.2705 -17.6336 0
      vertex 21.2132 -21.2132 0
    endloop
  endfacet
  facet normal 0 0 -1
    outer loop
      vertex -29.6306 -4.69303 0
      vertex 21.2132 -21.2132 0
      vertex 17.6336 -24.2705 0
    endloop
  endfacet
  facet normal 0 0 -1
    outer loop
      vertex -29.6306 -4.69303 0
      vertex 17.6336 -24.2705 0
      vertex 13.6197 -26.7302 0
    endloop
  endfacet
  facet normal 0 0 -1
    outer loop
      vertex -29.6306 -4.69303 0
      vertex 13.6197 -26.7302 0
      vertex 9.27051 -28.5317 0
    endloop
  endfacet
  facet normal 0 0 -1
    outer loop
      vertex -29.6306 -4.69303 0
      vertex 9.27051 -28.5317 0
      vertex 4.69303 -29.6306 0
    endloop
  endfacet
  facet normal 0 0 -1
    outer loop
      vertex -29.6306 -4.69303 0
      vertex 4.69303 -29.6306 0
      vertex 0 -30 0
    endloop
  endfacet
  facet normal 0 0 -1
    outer loop
      vertex -29.6306 -4.69303 0
      vertex 0 -30 0
      vertex -4.69303 -29.6306 0
    endloop
  endfacet
  facet normal 0 0 -1
    outer loop
      vertex -29.6306 -4.69303 0
      vertex -4.69303 -29.6306 0
      vertex -9.27051 -28.5317 0
    endloop
  endfacet
  facet normal 0 0 -1
    outer loop
      vertex -29.6306 -4.69303 0
      vertex -9.27051 -28.5317 0
      vertex -13.6197 -26.7302 0
    endloop
  endfacet
  facet normal 0 0 -1
    outer loop
      vertex -29.6306 -4.69303 0
      vertex -13.6197 -26.7302 0
      vertex -17.6336 -24.2705 0
    endloop
  endfacet
  facet normal 0 0 -1
    outer loop
      vertex -29.6306 -4.69303 0
      vertex -17.6336 -24.2705 0
      vertex -21.2132 -21.2132 0
    endloop
  endfacet
  facet normal 0 0 -1
    outer loop
      vertex -29.6306 -4.69303 0
      vertex -21.2132 -21.2132 0
      vertex -24.2705 -17.6336 0
    endloop
  endfacet
  facet normal 0 0 -1
    outer loop
      vertex -29.6306 -4.69303 0
      vertex -24.2705 -17.6336 0
      vertex -26.7302 -13.6197 0
    endloop
  endfacet
  facet normal 0 0 -1
    outer loop
      vertex -29.6306 -4.69303 0
      vertex -26.7302 -13.6197 0
      vertex -28.5317 -9.27051 0
    endloop
  endfacet
  facet normal 0 0 -1
    outer loop
      vertex -11.3378 0.809017 0
      vertex -29.6306 -4.69303 0
      vertex -11.059 0.951057 0
    endloop
  endfacet
  facet normal 0 0 -1
    outer loop
      vertex -29.6306 -4.69303 0
      vertex -11.75 0 0
      vertex -11.7011 -0.309017 0
    endloop
  endfacet
  facet normal 0 0 -1
    outer loop
      vertex -29.6306 -4.69303 0
      vertex -11.559 -0.587785 0
      vertex -11.3378 -0.809017 0
    endloop
  endfacet
  facet normal 0 0 -1
    outer loop
      vertex -29.6306 -4.69303 0
      vertex -11.3378 -0.809017 0
      vertex -11.059 -0.951057 0
    endloop
  endfacet
  facet normal 0 0 -1
    outer loop
      vertex -29.6306 -4.69303 0
      vertex -11.059 -0.951057 0
      vertex -10.75 -1 0
    endloop
  endfacet
  facet normal 0 0 -1
    outer loop
      vertex -2.93444 -0.623735 0
      vertex -29.6306 -4.69303 0
      vertex -3 0 0
    endloop
  endfacet
  facet normal 0 0 -1
    outer loop
      vertex 2.74064 1.22021 0
      vertex 29.6306 4.69303 0
      vertex 2.93444 0.623735 0
    endloop
  endfacet
  facet normal 0 0 -1
    outer loop
      vertex 0.927051 2.85317 0
      vertex 28.5317 9.27051 0
      vertex 1.5 2.59808 0
    endloop
  endfacet
  facet normal 0 0 -1
    outer loop
      vertex -10.1622 0.809017 0
      vertex 26.7302 13.6197 0
      vertex -9.94098 0.587785 0
    endloop
  endfacet
  facet normal 0 0 -1
    outer loop
      vertex -10.441 0.951057 0
      vertex 26.7302 13.6197 0
      vertex -10.1622 0.809017 0
    endloop
  endfacet
  facet normal 0 0 -1
    outer loop
      vertex -10.75 1 0
      vertex 26.7302 13.6197 0
      vertex -10.441 0.951057 0
    endloop
  endfacet
  facet normal 0 0 -1
    outer loop
      vertex -11.059 0.951057 0
      vertex 26.7302 13.6197 0
      vertex -10.75 1 0
    endloop
  endfacet
  facet normal 0 0 -1
    outer loop
      vertex -29.6306 -4.69303 0
      vertex 26.7302 13.6197 0
      vertex -11.059 0.951057 0
    endloop
  endfacet
  facet normal 0 0 -1
    outer loop
      vertex -11.559 0.587785 0
      vertex -29.6306 -4.69303 0
      vertex -11.3378 0.809017 0
    endloop
  endfacet
  facet normal 0 0 -1
    outer loop
      vertex -11.7011 0.309017 0
      vertex -29.6306 -4.69303 0
      vertex -11.559 0.587785 0
    endloop
  endfacet
  facet normal 0 0 -1
    outer loop
      vertex -3 0 0
      vertex -10.441 -0.951057 0
      vertex -10.1622 -0.809017 0
    endloop
  endfacet
  facet normal 0 0 -1
    outer loop
      vertex -3 0 0
      vertex -10.75 -1 0
      vertex -10.441 -0.951057 0
    endloop
  endfacet
  facet normal 0 0 -1
    outer loop
      vertex -29.6306 -4.69303 0
      vertex -11.7011 0.309017 0
      vertex -11.75 0 0
    endloop
  endfacet
  facet normal 0 0 -1
    outer loop
      vertex -29.6306 -4.69303 0
      vertex -10.75 -1 0
      vertex -3 0 0
    endloop
  endfacet
  facet normal 0 0 -1
    outer loop
      vertex -1.5 -2.59808 0
      vertex -29.6306 -4.69303 0
      vertex -2.00739 -2.22943 0
    endloop
  endfacet
  facet normal 0 0 -1
    outer loop
      vertex -29.6306 -4.69303 0
      vertex -2.93444 -0.623735 0
      vertex -2.74064 -1.22021 0
    endloop
  endfacet
  facet normal 0 0 -1
    outer loop
      vertex 3 0 0
      vertex 9.79894 -0.309017 0
      vertex 2.93444 -0.623735 0
    endloop
  endfacet
  facet normal 0 0 -1
    outer loop
      vertex -29.6306 -4.69303 0
      vertex -2.74064 -1.22021 0
      vertex -2.42705 -1.76336 0
    endloop
  endfacet
  facet normal 0 0 -1
    outer loop
      vertex 2.93444 -0.623735 0
      vertex 10.1622 -0.809017 0
      vertex 2.74064 -1.22021 0
    endloop
  endfacet
  facet normal 0 0 -1
    outer loop
      vertex -29.6306 -4.69303 0
      vertex -2.42705 -1.76336 0
      vertex -2.00739 -2.22943 0
    endloop
  endfacet
  facet normal 0 0 -1
    outer loop
      vertex 2.74064 -1.22021 0
      vertex 10.75 -1 0
      vertex 2.42705 -1.76336 0
    endloop
  endfacet
  facet normal 0 0 -1
    outer loop
      vertex 2.42705 -1.76336 0
      vertex 30 0 0
      vertex 2.00739 -2.22943 0
    endloop
  endfacet
  facet normal 0 0 -1
    outer loop
      vertex -29.6306 -4.69303 0
      vertex -1.5 -2.59808 0
      vertex -0.927051 -2.85317 0
    endloop
  endfacet
  facet normal 0 0 -1
    outer loop
      vertex -29.6306 -4.69303 0
      vertex -0.927051 -2.85317 0
      vertex -0.313585 -2.98357 0
    endloop
  endfacet
  facet normal 0 0 -1
    outer loop
      vertex -29.6306 -4.69303 0
      vertex -0.313585 -2.98357 0
      vertex 29.6306 -4.69303 0
    endloop
  endfacet
  facet normal 0 0 -1
    outer loop
      vertex -0.313585 -2.98357 0
      vertex 0.313585 -2.98357 0
      vertex 29.6306 -4.69303 0
    endloop
  endfacet
  facet normal 0 0 -1
    outer loop
      vertex 1.5 -2.59808 0
      vertex 29.6306 -4.69303 0
      vertex 0.927051 -2.85317 0
    endloop
  endfacet
  facet normal 0 0 -1
    outer loop
      vertex 2.00739 -2.22943 0
      vertex 30 0 0
      vertex 1.5 -2.59808 0
    endloop
  endfacet
  facet normal 0 0 -1
    outer loop
      vertex 0.927051 -2.85317 0
      vertex 29.6306 -4.69303 0
      vertex 0.313585 -2.98357 0
    endloop
  endfacet
  facet normal 0 0 -1
    outer loop
      vertex 2.74064 -1.22021 0
      vertex 10.441 -0.951057 0
      vertex 10.75 -1 0
    endloop
  endfacet
  facet normal 0 0 -1
    outer loop
      vertex 11.3378 -0.809017 0
      vertex 30 0 0
      vertex 11.059 -0.951057 0
    endloop
  endfacet
  facet normal 0 0 -1
    outer loop
      vertex 10.1622 -0.809017 0
      vertex 2.93444 -0.623735 0
      vertex 9.94098 -0.587785 0
    endloop
  endfacet
  facet normal 0 0 -1
    outer loop
      vertex 11.7011 0.309017 0
      vertex 29.6306 4.69303 0
      vertex 11.75 0 0
    endloop
  endfacet
  facet normal 0 0 -1
    outer loop
      vertex 10.75 -1 0
      vertex 30 0 0
      vertex 2.42705 -1.76336 0
    endloop
  endfacet
  facet normal 0 0 -1
    outer loop
      vertex 2.00739 2.22943 0
      vertex 28.5317 9.27051 0
      vertex 2.42705 1.76336 0
    endloop
  endfacet
  facet normal 0 0 -1
    outer loop
      vertex 1.5 2.59808 0
      vertex 28.5317 9.27051 0
      vertex 2.00739 2.22943 0
    endloop
  endfacet
  facet normal 0 0 -1
    outer loop
      vertex -2.74064 1.22021 0
      vertex -9.79894 -0.309017 0
      vertex -9.75 0 0
    endloop
  endfacet
  facet normal 0 0 -1
    outer loop
      vertex 11.75 0 0
      vertex 30 0 0
      vertex 11.7011 -0.309017 0
    endloop
  endfacet
  facet normal 0 0 -1
    outer loop
      vertex -9.94098 0.587785 0
      vertex -2.00739 2.22943 0
      vertex -9.79894 0.309017 0
    endloop
  endfacet
  facet normal 0 0 -1
    outer loop
      vertex -3 0 0
      vertex -9.94098 -0.587785 0
      vertex -9.79894 -0.309017 0
    endloop
  endfacet
  facet normal 0 0 -1
    outer loop
      vertex 0.313585 2.98357 0
      vertex 28.5317 9.27051 0
      vertex 0.927051 2.85317 0
    endloop
  endfacet
  facet normal 0 0 -1
    outer loop
      vertex -0.313585 2.98357 0
      vertex 26.7302 13.6197 0
      vertex 0.313585 2.98357 0
    endloop
  endfacet
  facet normal 0 0 -1
    outer loop
      vertex -1.5 2.59808 0
      vertex -9.94098 0.587785 0
      vertex -0.927051 2.85317 0
    endloop
  endfacet
  facet normal 0 0 -1
    outer loop
      vertex -0.927051 2.85317 0
      vertex 26.7302 13.6197 0
      vertex -0.313585 2.98357 0
    endloop
  endfacet
  facet normal 0 0 -1
    outer loop
      vertex -9.94098 0.587785 0
      vertex 26.7302 13.6197 0
      vertex -0.927051 2.85317 0
    endloop
  endfacet
  facet normal 0 0 -1
    outer loop
      vertex -2.00739 2.22943 0
      vertex -9.94098 0.587785 0
      vertex -1.5 2.59808 0
    endloop
  endfacet
  facet normal 0 0 -1
    outer loop
      vertex -3 0 0
      vertex -10.1622 -0.809017 0
      vertex -9.94098 -0.587785 0
    endloop
  endfacet
  facet normal 0 0 -1
    outer loop
      vertex -2.42705 1.76336 0
      vertex -9.79894 0.309017 0
      vertex -2.00739 2.22943 0
    endloop
  endfacet
  facet normal 0 0 -1
    outer loop
      vertex -2.42705 1.76336 0
      vertex -9.75 0 0
      vertex -9.79894 0.309017 0
    endloop
  endfacet
  facet normal 0 0 -1
    outer loop
      vertex 9.94098 -0.587785 0
      vertex 2.93444 -0.623735 0
      vertex 9.79894 -0.309017 0
    endloop
  endfacet
  facet normal 0 0 -1
    outer loop
      vertex 2.93444 0.623735 0
      vertex 29.6306 4.69303 0
      vertex 3 0 0
    endloop
  endfacet
  facet normal 0 0 -1
    outer loop
      vertex 11.75 0 0
      vertex 29.6306 4.69303 0
      vertex 30 0 0
    endloop
  endfacet
  facet normal 0 0 -1
    outer loop
      vertex 3 0 0
      vertex 9.75 0 0
      vertex 9.79894 -0.309017 0
    endloop
  endfacet
  facet normal 0 0 -1
    outer loop
      vertex 11.559 -0.587785 0
      vertex 30 0 0
      vertex 11.3378 -0.809017 0
    endloop
  endfacet
  facet normal 0 0 -1
    outer loop
      vertex 11.7011 -0.309017 0
      vertex 30 0 0
      vertex 11.559 -0.587785 0
    endloop
  endfacet
  facet normal 0 0 -1
    outer loop
      vertex 10.441 -0.951057 0
      vertex 2.74064 -1.22021 0
      vertex 10.1622 -0.809017 0
    endloop
  endfacet
  facet normal 0 0 -1
    outer loop
      vertex 10.75 -1 0
      vertex 11.059 -0.951057 0
      vertex 30 0 0
    endloop
  endfacet
  facet normal 0 0 -1
    outer loop
      vertex -2.74064 1.22021 0
      vertex -9.75 0 0
      vertex -2.42705 1.76336 0
    endloop
  endfacet
  facet normal 0 0 -1
    outer loop
      vertex 11.559 0.587785 0
      vertex 29.6306 4.69303 0
      vertex 11.7011 0.309017 0
    endloop
  endfacet
  facet normal 0 0 -1
    outer loop
      vertex 11.3378 0.809017 0
      vertex 29.6306 4.69303 0
      vertex 11.559 0.587785 0
    endloop
  endfacet
  facet normal 0 0 -1
    outer loop
      vertex 11.059 0.951057 0
      vertex 29.6306 4.69303 0
      vertex 11.3378 0.809017 0
    endloop
  endfacet
  facet normal 0 0 -1
    outer loop
      vertex 10.75 1 0
      vertex 29.6306 4.69303 0
      vertex 11.059 0.951057 0
    endloop
  endfacet
  facet normal 0 0 -1
    outer loop
      vertex 3 0 0
      vertex 29.6306 4.69303 0
      vertex 10.75 1 0
    endloop
  endfacet
  facet normal 0 0 -1
    outer loop
      vertex 3 0 0
      vertex 10.75 1 0
      vertex 10.441 0.951057 0
    endloop
  endfacet
  facet normal 0 0 -1
    outer loop
      vertex 9.94098 0.587785 0
      vertex 3 0 0
      vertex 10.1622 0.809017 0
    endloop
  endfacet
  facet normal 0 0 -1
    outer loop
      vertex 9.79894 0.309017 0
      vertex 3 0 0
      vertex 9.94098 0.587785 0
    endloop
  endfacet
  facet normal 0 0 -1
    outer loop
      vertex 3 0 0
      vertex 9.79894 0.309017 0
      vertex 9.75 0 0
    endloop
  endfacet
  facet normal 0 0 -1
    outer loop
      vertex -11.559 -0.587785 0
      vertex -29.6306 -4.69303 0
      vertex -11.7011 -0.309017 0
    endloop
  endfacet
  facet normal 0 0 -1
    outer loop
      vertex -3 0 0
      vertex -9.79894 -0.309017 0
      vertex -2.93444 0.623735 0
    endloop
  endfacet
  facet normal 0 0 -1
    outer loop
      vertex -2.93444 0.623735 0
      vertex -9.79894 -0.309017 0
      vertex -2.74064 1.22021 0
    endloop
  endfacet
  facet normal 0 0 -1
    outer loop
      vertex 2.42705 1.76336 0
      vertex 29.6306 4.69303 0
      vertex 2.74064 1.22021 0
    endloop
  endfacet
  facet normal -0.996917 0.0784591 0
    outer loop
      vertex -30 0 0
      vertex -30 0 4
      vertex -29.6306 4.69303 0
    endloop
  endfacet
  facet normal -0.996917 0.0784591 0
    outer loop
      vertex -29.6306 4.69303 0
      vertex -30 0 4
      vertex -29.6306 4.69303 4
    endloop
  endfacet
  facet normal -0.996917 -0.0784591 0
    outer loop
      vertex -30 0 0
      vertex -29.6306 -4.69303 0
      vertex -30 0 4
    endloop
  endfacet
  facet normal -0.996917 -0.0784591 0
    outer loop
      vertex -30 0 4
      vertex -29.6306 -4.69303 0
      vertex -29.6306 -4.69303 4
    endloop
  endfacet
  facet normal -0.97237 -0.233445 0
    outer loop
      vertex -29.6306 -4.69303 0
      vertex -28.5317 -9.27051 0
      vertex -29.6306 -4.69303 4
    endloop
  endfacet
  facet normal -0.97237 -0.233445 0
    outer loop
      vertex -29.6306 -4.69303 4
      vertex -28.5317 -9.27051 0
      vertex -28.5317 -9.27051 4
    endloop
  endfacet
  facet normal -0.92388 -0.382683 0
    outer loop
      vertex -28.5317 -9.27051 0
      vertex -26.7302 -13.6197 0
      vertex -28.5317 -9.27051 4
    endloop
  endfacet
  facet normal -0.92388 -0.382683 0
    outer loop
      vertex -28.5317 -9.27051 4
      vertex -26.7302 -13.6197 0
      vertex -26.7302 -13.6197 4
    endloop
  endfacet
  facet normal -0.85264 -0.522499 0
    outer loop
      vertex -26.7302 -13.6197 0
      vertex -24.2705 -17.6336 0
      vertex -26.7302 -13.6197 4
    endloop
  endfacet
  facet normal -0.85264 -0.522499 0
    outer loop
      vertex -26.7302 -13.6197 4
      vertex -24.2705 -17.6336 0
      vertex -24.2705 -17.6336 4
    endloop
  endfacet
  facet normal -0.760406 -0.649448 0
    outer loop
      vertex -24.2705 -17.6336 0
      vertex -21.2132 -21.2132 0
      vertex -24.2705 -17.6336 4
    endloop
  endfacet
  facet normal -0.760406 -0.649448 0
    outer loop
      vertex -24.2705 -17.6336 4
      vertex -21.2132 -21.2132 0
      vertex -21.2132 -21.2132 4
    endloop
  endfacet
  facet normal -0.649448 -0.760406 0
    outer loop
      vertex -21.2132 -21.2132 4
      vertex -21.2132 -21.2132 0
      vertex -17.6336 -24.2705 0
    endloop
  endfacet
  facet normal -0.649448 -0.760406 0
    outer loop
      vertex -17.6336 -24.2705 4
      vertex -21.2132 -21.2132 4
      vertex -17.6336 -24.2705 0
    endloop
  endfacet
  facet normal -0.522499 -0.85264 0
    outer loop
      vertex -17.6336 -24.2705 4
      vertex -17.6336 -24.2705 0
      vertex -13.6197 -26.7302 0
    endloop
  endfacet
  facet normal -0.522499 -0.85264 0
    outer loop
      vertex -13.6197 -26.7302 4
      vertex -17.6336 -24.2705 4
      vertex -13.6197 -26.7302 0
    endloop
  endfacet
  facet normal -0.382683 -0.92388 0
    outer loop
      vertex -13.6197 -26.7302 4
      vertex -13.6197 -26.7302 0
      vertex -9.27051 -28.5317 0
    endloop
  endfacet
  facet normal -0.382683 -0.92388 0
    outer loop
      vertex -9.27051 -28.5317 4
      vertex -13.6197 -26.7302 4
      vertex -9.27051 -28.5317 0
    endloop
  endfacet
  facet normal -0.233445 -0.97237 0
    outer loop
      vertex -9.27051 -28.5317 4
      vertex -9.27051 -28.5317 0
      vertex -4.69303 -29.6306 0
    endloop
  endfacet
  facet normal -0.233445 -0.97237 0
    outer loop
      vertex -4.69303 -29.6306 4
      vertex -9.27051 -28.5317 4
      vertex -4.69303 -29.6306 0
    endloop
  endfacet
  facet normal -0.0784591 -0.996917 0
    outer loop
      vertex -4.69303 -29.6306 4
      vertex -4.69303 -29.6306 0
      vertex 0 -30 0
    endloop
  endfacet
  facet normal -0.0784591 -0.996917 0
    outer loop
      vertex 0 -30 4
      vertex -4.69303 -29.6306 4
      vertex 0 -30 0
    endloop
  endfacet
  facet normal 0.0784591 -0.996917 0
    outer loop
      vertex 0 -30 4
      vertex 0 -30 0
      vertex 4.69303 -29.6306 0
    endloop
  endfacet
  facet normal 0.0784591 -0.996917 0
    outer loop
      vertex 4.69303 -29.6306 4
      vertex 0 -30 4
      vertex 4.69303 -29.6306 0
    endloop
  endfacet
  facet normal 0.233445 -0.97237 0
    outer loop
      vertex 4.69303 -29.6306 4
      vertex 4.69303 -29.6306 0
      vertex 9.27051 -28.5317 0
    endloop
  endfacet
  facet normal 0.233445 -0.97237 0
    outer loop
      vertex 9.27051 -28.5317 4
      vertex 4.69303 -29.6306 4
      vertex 9.27051 -28.5317 0
    endloop
  endfacet
  facet normal 0.382683 -0.92388 0
    outer loop
      vertex 9.27051 -28.5317 4
      vertex 9.27051 -28.5317 0
      vertex 13.6197 -26.7302 0
    endloop
  endfacet
  facet normal 0.382683 -0.92388 0
    outer loop
      vertex 13.6197 -26.7302 4
      vertex 9.27051 -28.5317 4
      vertex 13.6197 -26.7302 0
    endloop
  endfacet
  facet normal 0.522499 -0.85264 0
    outer loop
      vertex 13.6197 -26.7302 4
      vertex 13.6197 -26.7302 0
      vertex 17.6336 -24.2705 0
    endloop
  endfacet
  facet normal 0.522499 -0.85264 0
    outer loop
      vertex 17.6336 -24.2705 4
      vertex 13.6197 -26.7302 4
      vertex 17.6336 -24.2705 0
    endloop
  endfacet
  facet normal 0.649448 -0.760406 0
    outer loop
      vertex 17.6336 -24.2705 4
      vertex 17.6336 -24.2705 0
      vertex 21.2132 -21.2132 0
    endloop
  endfacet
  facet normal 0.649448 -0.760406 0
    outer loop
      vertex 21.2132 -21.2132 4
      vertex 17.6336 -24.2705 4
      vertex 21.2132 -21.2132 0
    endloop
  endfacet
  facet normal 0.760406 -0.649448 0
    outer loop
      vertex 21.2132 -21.2132 4
      vertex 21.2132 -21.2132 0
      vertex 24.2705 -17.6336 0
    endloop
  endfacet
  facet normal 0.760406 -0.649448 0
    outer loop
      vertex 24.2705 -17.6336 4
      vertex 21.2132 -21.2132 4
      vertex 24.2705 -17.6336 0
    endloop
  endfacet
  facet normal 0.85264 -0.522499 0
    outer loop
      vertex 24.2705 -17.6336 4
      vertex 24.2705 -17.6336 0
      vertex 26.7302 -13.6197 0
    endloop
  endfacet
  facet normal 0.85264 -0.522499 0
    outer loop
      vertex 26.7302 -13.6197 4
      vertex 24.2705 -17.6336 4
      vertex 26.7302 -13.6197 0
    endloop
  endfacet
  facet normal 0.92388 -0.382683 0
    outer loop
      vertex 26.7302 -13.6197 4
      vertex 26.7302 -13.6197 0
      vertex 28.5317 -9.27051 0
    endloop
  endfacet
  facet normal 0.92388 -0.382683 0
    outer loop
      vertex 28.5317 -9.27051 4
      vertex 26.7302 -13.6197 4
      vertex 28.5317 -9.27051 0
    endloop
  endfacet
  facet normal 0.97237 -0.233445 0
    outer loop
      vertex 28.5317 -9.27051 4
      vertex 28.5317 -9.27051 0
      vertex 29.6306 -4.69303 0
    endloop
  endfacet
  facet normal 0.97237 -0.233445 0
    outer loop
      vertex 29.6306 -4.69303 4
      vertex 28.5317 -9.27051 4
      vertex 29.6306 -4.69303 0
    endloop
  endfacet
  facet normal 0.996917 -0.0784591 0
    outer loop
      vertex 29.6306 -4.69303 4
      vertex 29.6306 -4.69303 0
      vertex 30 0 0
    endloop
  endfacet
  facet normal 0.996917 -0.0784591 0
    outer loop
      vertex 30 0 4
      vertex 29.6306 -4.69303 4
      vertex 30 0 0
    endloop
  endfacet
  facet normal 0.996917 0.0784591 0
    outer loop
      vertex 30 0 0
      vertex 29.6306 4.69303 0
      vertex 29.6306 4.69303 4
    endloop
  endfacet
  facet normal 0.996917 0.0784591 0
    outer loop
      vertex 30 0 4
      vertex 30 0 0
      vertex 29.6306 4.69303 4
    endloop
  endfacet
  facet normal 0.97237 0.233445 0
    outer loop
      vertex 29.6306 4.69303 0
      vertex 28.5317 9.27051 0
      vertex 28.5317 9.27051 4
    endloop
  endfacet
  facet normal 0.97237 0.233445 0
    outer loop
      vertex 29.6306 4.69303 4
      vertex 29.6306 4.69303 0
      vertex 28.5317 9.27051 4
    endloop
  endfacet
  facet normal 0.92388 0.382683 0
    outer loop
      vertex 28.5317 9.27051 0
      vertex 26.7302 13.6197 0
      vertex 26.7302 13.6197 4
    endloop
  endfacet
  facet normal 0.92388 0.382683 0
    outer loop
      vertex 28.5317 9.27051 4
      vertex 28.5317 9.27051 0
      vertex 26.7302 13.6197 4
    endloop
  endfacet
  facet normal 0.85264 0.522499 0
    outer loop
      vertex 26.7302 13.6197 0
      vertex 24.2705 17.6336 0
      vertex 24.2705 17.6336 4
    endloop
  endfacet
  facet normal 0.85264 0.522499 0
    outer loop
      vertex 26.7302 13.6197 4
      vertex 26.7302 13.6197 0
      vertex 24.2705 17.6336 4
    endloop
  endfacet
  facet normal 0.760406 0.649448 0
    outer loop
      vertex 24.2705 17.6336 0
      vertex 21.2132 21.2132 0
      vertex 21.2132 21.2132 4
    endloop
  endfacet
  facet normal 0.760406 0.649448 0
    outer loop
      vertex 24.2705 17.6336 4
      vertex 24.2705 17.6336 0
      vertex 21.2132 21.2132 4
    endloop
  endfacet
  facet normal 0.649448 0.760406 0
    outer loop
      vertex 17.6336 24.2705 0
      vertex 17.6336 24.2705 4
      vertex 21.2132 21.2132 0
    endloop
  endfacet
  facet normal 0.649448 0.760406 0
    outer loop
      vertex 21.2132 21.2132 0
      vertex 17.6336 24.2705 4
      vertex 21.2132 21.2132 4
    endloop
  endfacet
  facet normal 0.522499 0.85264 0
    outer loop
      vertex 13.6197 26.7302 0
      vertex 13.6197 26.7302 4
      vertex 17.6336 24.2705 0
    endloop
  endfacet
  facet normal 0.522499 0.85264 0
    outer loop
      vertex 17.6336 24.2705 0
      vertex 13.6197 26.7302 4
      vertex 17.6336 24.2705 4
    endloop
  endfacet
  facet normal 0.382683 0.92388 0
    outer loop
      vertex 9.27051 28.5317 0
      vertex 9.27051 28.5317 4
      vertex 13.6197 26.7302 0
    endloop
  endfacet
  facet normal 0.382683 0.92388 0
    outer loop
      vertex 13.6197 26.7302 0
      vertex 9.27051 28.5317 4
      vertex 13.6197 26.7302 4
    endloop
  endfacet
  facet normal 0.233445 0.97237 0
    outer loop
      vertex 4.69303 29.6306 0
      vertex 4.69303 29.6306 4
      vertex 9.27051 28.5317 0
    endloop
  endfacet
  facet normal 0.233445 0.97237 0
    outer loop
      vertex 9.27051 28.5317 0
      vertex 4.69303 29.6306 4
      vertex 9.27051 28.5317 4
    endloop
  endfacet
  facet normal 0.0784591 0.996917 0
    outer loop
      vertex 0 30 0
      vertex 0 30 4
      vertex 4.69303 29.6306 0
    endloop
  endfacet
  facet normal 0.0784591 0.996917 0
    outer loop
      vertex 4.69303 29.6306 0
      vertex 0 30 4
      vertex 4.69303 29.6306 4
    endloop
  endfacet
  facet normal -0.0784591 0.996917 0
    outer loop
      vertex -4.69303 29.6306 0
      vertex -4.69303 29.6306 4
      vertex 0 30 0
    endloop
  endfacet
  facet normal -0.0784591 0.996917 0
    outer loop
      vertex 0 30 0
      vertex -4.69303 29.6306 4
      vertex 0 30 4
    endloop
  endfacet
  facet normal -0.233445 0.97237 0
    outer loop
      vertex -9.27051 28.5317 0
      vertex -9.27051 28.5317 4
      vertex -4.69303 29.6306 0
    endloop
  endfacet
  facet normal -0.233445 0.97237 0
    outer loop
      vertex -4.69303 29.6306 0
      vertex -9.27051 28.5317 4
      vertex -4.69303 29.6306 4
    endloop
  endfacet
  facet normal -0.382683 0.92388 0
    outer loop
      vertex -13.6197 26.7302 0
      vertex -13.6197 26.7302 4
      vertex -9.27051 28.5317 0
    endloop
  endfacet
  facet normal -0.382683 0.92388 0
    outer loop
      vertex -9.27051 28.5317 0
      vertex -13.6197 26.7302 4
      vertex -9.27051 28.5317 4
    endloop
  endfacet
  facet normal -0.522499 0.85264 0
    outer loop
      vertex -17.6336 24.2705 0
      vertex -17.6336 24.2705 4
      vertex -13.6197 26.7302 0
    endloop
  endfacet
  facet normal -0.522499 0.85264 0
    outer loop
      vertex -13.6197 26.7302 0
      vertex -17.6336 24.2705 4
      vertex -13.6197 26.7302 4
    endloop
  endfacet
  facet normal -0.649448 0.760406 0
    outer loop
      vertex -21.2132 21.2132 0
      vertex -21.2132 21.2132 4
      vertex -17.6336 24.2705 0
    endloop
  endfacet
  facet normal -0.649448 0.760406 0
    outer loop
      vertex -17.6336 24.2705 0
      vertex -21.2132 21.2132 4
      vertex -17.6336 24.2705 4
    endloop
  endfacet
  facet normal -0.760406 0.649448 0
    outer loop
      vertex -24.2705 17.6336 0
      vertex -24.2705 17.6336 4
      vertex -21.2132 21.2132 0
    endloop
  endfacet
  facet normal -0.760406 0.649448 0
    outer loop
      vertex -21.2132 21.2132 0
      vertex -24.2705 17.6336 4
      vertex -21.2132 21.2132 4
    endloop
  endfacet
  facet normal -0.85264 0.522499 0
    outer loop
      vertex -26.7302 13.6197 0
      vertex -26.7302 13.6197 4
      vertex -24.2705 17.6336 0
    endloop
  endfacet
  facet normal -0.85264 0.522499 0
    outer loop
      vertex -24.2705 17.6336 0
      vertex -26.7302 13.6197 4
      vertex -24.2705 17.6336 4
    endloop
  endfacet
  facet normal -0.92388 0.382683 0
    outer loop
      vertex -28.5317 9.27051 0
      vertex -28.5317 9.27051 4
      vertex -26.7302 13.6197 0
    endloop
  endfacet
  facet normal -0.92388 0.382683 0
    outer loop
      vertex -26.7302 13.6197 0
      vertex -28.5317 9.27051 4
      vertex -26.7302 13.6197 4
    endloop
  endfacet
  facet normal -0.97237 0.233445 0
    outer loop
      vertex -29.6306 4.69303 0
      vertex -29.6306 4.69303 4
      vertex -28.5317 9.27051 0
    endloop
  endfacet
  facet normal -0.97237 0.233445 0
    outer loop
      vertex -28.5317 9.27051 0
      vertex -29.6306 4.69303 4
      vertex -28.5317 9.27051 4
    endloop
  endfacet
  facet normal 0.987689 -0.156433 0
    outer loop
      vertex -11.7011 0.309017 0
      vertex -11.7011 0.309017 4
      vertex -11.75 0 4
    endloop
  endfacet
  facet normal 0.987689 -0.156433 0
    outer loop
      vertex -11.75 0 0
      vertex -11.7011 0.309017 0
      vertex -11.75 0 4
    endloop
  endfacet
  facet normal 0.987689 0.156433 0
    outer loop
      vertex -11.75 0 4
      vertex -11.7011 -0.309017 4
      vertex -11.7011 -0.309017 0
    endloop
  endfacet
  facet normal 0.987689 0.156433 0
    outer loop
      vertex -11.75 0 0
      vertex -11.75 0 4
      vertex -11.7011 -0.309017 0
    endloop
  endfacet
  facet normal 0.891006 -0.453992 0
    outer loop
      vertex -11.559 0.587785 0
      vertex -11.559 0.587785 4
      vertex -11.7011 0.309017 4
    endloop
  endfacet
  facet normal 0.891006 -0.453992 0
    outer loop
      vertex -11.7011 0.309017 0
      vertex -11.559 0.587785 0
      vertex -11.7011 0.309017 4
    endloop
  endfacet
  facet normal 0.707107 -0.707107 0
    outer loop
      vertex -11.3378 0.809017 0
      vertex -11.3378 0.809017 4
      vertex -11.559 0.587785 4
    endloop
  endfacet
  facet normal 0.707107 -0.707107 0
    outer loop
      vertex -11.559 0.587785 0
      vertex -11.3378 0.809017 0
      vertex -11.559 0.587785 4
    endloop
  endfacet
  facet normal 0.453992 -0.891006 0
    outer loop
      vertex -11.059 0.951057 0
      vertex -11.059 0.951057 4
      vertex -11.3378 0.809017 4
    endloop
  endfacet
  facet normal 0.453992 -0.891006 0
    outer loop
      vertex -11.3378 0.809017 0
      vertex -11.059 0.951057 0
      vertex -11.3378 0.809017 4
    endloop
  endfacet
  facet normal 0.156433 -0.987689 0
    outer loop
      vertex -10.75 1 0
      vertex -10.75 1 4
      vertex -11.059 0.951057 4
    endloop
  endfacet
  facet normal 0.156433 -0.987689 0
    outer loop
      vertex -11.059 0.951057 0
      vertex -10.75 1 0
      vertex -11.059 0.951057 4
    endloop
  endfacet
  facet normal -0.156433 -0.987689 0
    outer loop
      vertex -10.441 0.951057 0
      vertex -10.441 0.951057 4
      vertex -10.75 1 4
    endloop
  endfacet
  facet normal -0.156433 -0.987689 0
    outer loop
      vertex -10.75 1 0
      vertex -10.441 0.951057 0
      vertex -10.75 1 4
    endloop
  endfacet
  facet normal -0.453992 -0.891006 0
    outer loop
      vertex -10.1622 0.809017 0
      vertex -10.1622 0.809017 4
      vertex -10.441 0.951057 4
    endloop
  endfacet
  facet normal -0.453992 -0.891006 0
    outer loop
      vertex -10.441 0.951057 0
      vertex -10.1622 0.809017 0
      vertex -10.441 0.951057 4
    endloop
  endfacet
  facet normal -0.707107 -0.707107 0
    outer loop
      vertex -9.94098 0.587785 0
      vertex -9.94098 0.587785 4
      vertex -10.1622 0.809017 4
    endloop
  endfacet
  facet normal -0.707107 -0.707107 0
    outer loop
      vertex -10.1622 0.809017 0
      vertex -9.94098 0.587785 0
      vertex -10.1622 0.809017 4
    endloop
  endfacet
  facet normal -0.891006 -0.453992 0
    outer loop
      vertex -9.79894 0.309017 4
      vertex -9.94098 0.587785 4
      vertex -9.79894 0.309017 0
    endloop
  endfacet
  facet normal -0.891006 -0.453992 0
    outer loop
      vertex -9.79894 0.309017 0
      vertex -9.94098 0.587785 4
      vertex -9.94098 0.587785 0
    endloop
  endfacet
  facet normal -0.987689 -0.156433 0
    outer loop
      vertex -9.75 0 4
      vertex -9.79894 0.309017 4
      vertex -9.75 0 0
    endloop
  endfacet
  facet normal -0.987689 -0.156433 0
    outer loop
      vertex -9.75 0 0
      vertex -9.79894 0.309017 4
      vertex -9.79894 0.309017 0
    endloop
  endfacet
  facet normal -0.987689 0.156433 0
    outer loop
      vertex -9.75 0 4
      vertex -9.75 0 0
      vertex -9.79894 -0.309017 4
    endloop
  endfacet
  facet normal -0.987689 0.156433 0
    outer loop
      vertex -9.79894 -0.309017 4
      vertex -9.75 0 0
      vertex -9.79894 -0.309017 0
    endloop
  endfacet
  facet normal -0.891006 0.453992 0
    outer loop
      vertex -9.79894 -0.309017 4
      vertex -9.79894 -0.309017 0
      vertex -9.94098 -0.587785 4
    endloop
  endfacet
  facet normal -0.891006 0.453992 0
    outer loop
      vertex -9.94098 -0.587785 4
      vertex -9.79894 -0.309017 0
      vertex -9.94098 -0.587785 0
    endloop
  endfacet
  facet normal -0.707107 0.707107 0
    outer loop
      vertex -9.94098 -0.587785 4
      vertex -9.94098 -0.587785 0
      vertex -10.1622 -0.809017 4
    endloop
  endfacet
  facet normal -0.707107 0.707107 0
    outer loop
      vertex -10.1622 -0.809017 4
      vertex -9.94098 -0.587785 0
      vertex -10.1622 -0.809017 0
    endloop
  endfacet
  facet normal -0.453992 0.891006 0
    outer loop
      vertex -10.1622 -0.809017 4
      vertex -10.1622 -0.809017 0
      vertex -10.441 -0.951057 4
    endloop
  endfacet
  facet normal -0.453992 0.891006 0
    outer loop
      vertex -10.441 -0.951057 4
      vertex -10.1622 -0.809017 0
      vertex -10.441 -0.951057 0
    endloop
  endfacet
  facet normal -0.156433 0.987689 0
    outer loop
      vertex -10.441 -0.951057 4
      vertex -10.441 -0.951057 0
      vertex -10.75 -1 4
    endloop
  endfacet
  facet normal -0.156433 0.987689 0
    outer loop
      vertex -10.75 -1 4
      vertex -10.441 -0.951057 0
      vertex -10.75 -1 0
    endloop
  endfacet
  facet normal 0.156433 0.987689 0
    outer loop
      vertex -10.75 -1 4
      vertex -10.75 -1 0
      vertex -11.059 -0.951057 4
    endloop
  endfacet
  facet normal 0.156433 0.987689 0
    outer loop
      vertex -11.059 -0.951057 4
      vertex -10.75 -1 0
      vertex -11.059 -0.951057 0
    endloop
  endfacet
  facet normal 0.453992 0.891006 0
    outer loop
      vertex -11.059 -0.951057 4
      vertex -11.059 -0.951057 0
      vertex -11.3378 -0.809017 4
    endloop
  endfacet
  facet normal 0.453992 0.891006 0
    outer loop
      vertex -11.3378 -0.809017 4
      vertex -11.059 -0.951057 0
      vertex -11.3378 -0.809017 0
    endloop
  endfacet
  facet normal 0.707107 0.707107 0
    outer loop
      vertex -11.3378 -0.809017 4
      vertex -11.3378 -0.809017 0
      vertex -11.559 -0.587785 4
    endloop
  endfacet
  facet normal 0.707107 0.707107 0
    outer loop
      vertex -11.559 -0.587785 4
      vertex -11.3378 -0.809017 0
      vertex -11.559 -0.587785 0
    endloop
  endfacet
  facet normal 0.891006 0.453992 0
    outer loop
      vertex -11.7011 -0.309017 4
      vertex -11.559 -0.587785 4
      vertex -11.559 -0.587785 0
    endloop
  endfacet
  facet normal 0.891006 0.453992 0
    outer loop
      vertex -11.7011 -0.309017 0
      vertex -11.7011 -0.309017 4
      vertex -11.559 -0.587785 0
    endloop
  endfacet
  facet normal 0.994522 -0.104528 0
    outer loop
      vertex -2.93444 0.623735 0
      vertex -2.93444 0.623735 4
      vertex -3 0 4
    endloop
  endfacet
  facet normal 0.994522 -0.104528 0
    outer loop
      vertex -3 0 0
      vertex -2.93444 0.623735 0
      vertex -3 0 4
    endloop
  endfacet
  facet normal 0.994522 0.104528 0
    outer loop
      vertex -3 0 4
      vertex -2.93444 -0.623735 4
      vertex -2.93444 -0.623735 0
    endloop
  endfacet
  facet normal 0.994522 0.104528 0
    outer loop
      vertex -3 0 0
      vertex -3 0 4
      vertex -2.93444 -0.623735 0
    endloop
  endfacet
  facet normal 0.951056 -0.309018 0
    outer loop
      vertex -2.74064 1.22021 0
      vertex -2.74064 1.22021 4
      vertex -2.93444 0.623735 4
    endloop
  endfacet
  facet normal 0.951056 -0.309018 0
    outer loop
      vertex -2.93444 0.623735 0
      vertex -2.74064 1.22021 0
      vertex -2.93444 0.623735 4
    endloop
  endfacet
  facet normal 0.866026 -0.499999 0
    outer loop
      vertex -2.42705 1.76336 0
      vertex -2.42705 1.76336 4
      vertex -2.74064 1.22021 4
    endloop
  endfacet
  facet normal 0.866026 -0.499999 0
    outer loop
      vertex -2.74064 1.22021 0
      vertex -2.42705 1.76336 0
      vertex -2.74064 1.22021 4
    endloop
  endfacet
  facet normal 0.743144 -0.669131 0
    outer loop
      vertex -2.00739 2.22943 0
      vertex -2.00739 2.22943 4
      vertex -2.42705 1.76336 4
    endloop
  endfacet
  facet normal 0.743144 -0.669131 0
    outer loop
      vertex -2.42705 1.76336 0
      vertex -2.00739 2.22943 0
      vertex -2.42705 1.76336 4
    endloop
  endfacet
  facet normal 0.587785 -0.809017 0
    outer loop
      vertex -1.5 2.59808 0
      vertex -1.5 2.59808 4
      vertex -2.00739 2.22943 4
    endloop
  endfacet
  facet normal 0.587785 -0.809017 0
    outer loop
      vertex -2.00739 2.22943 0
      vertex -1.5 2.59808 0
      vertex -2.00739 2.22943 4
    endloop
  endfacet
  facet normal 0.406738 -0.913545 0
    outer loop
      vertex -0.927051 2.85317 0
      vertex -0.927051 2.85317 4
      vertex -1.5 2.59808 4
    endloop
  endfacet
  facet normal 0.406738 -0.913545 0
    outer loop
      vertex -1.5 2.59808 0
      vertex -0.927051 2.85317 0
      vertex -1.5 2.59808 4
    endloop
  endfacet
  facet normal 0.207911 -0.978148 0
    outer loop
      vertex -0.313585 2.98357 0
      vertex -0.313585 2.98357 4
      vertex -0.927051 2.85317 4
    endloop
  endfacet
  facet normal 0.207911 -0.978148 0
    outer loop
      vertex -0.927051 2.85317 0
      vertex -0.313585 2.98357 0
      vertex -0.927051 2.85317 4
    endloop
  endfacet
  facet normal 0 -1 0
    outer loop
      vertex 0.313585 2.98357 0
      vertex 0.313585 2.98357 4
      vertex -0.313585 2.98357 4
    endloop
  endfacet
  facet normal 0 -1 0
    outer loop
      vertex -0.313585 2.98357 0
      vertex 0.313585 2.98357 0
      vertex -0.313585 2.98357 4
    endloop
  endfacet
  facet normal -0.207911 -0.978148 0
    outer loop
      vertex 0.927051 2.85317 0
      vertex 0.927051 2.85317 4
      vertex 0.313585 2.98357 4
    endloop
  endfacet
  facet normal -0.207911 -0.978148 0
    outer loop
      vertex 0.313585 2.98357 0
      vertex 0.927051 2.85317 0
      vertex 0.313585 2.98357 4
    endloop
  endfacet
  facet normal -0.406738 -0.913545 0
    outer loop
      vertex 1.5 2.59808 0
      vertex 1.5 2.59808 4
      vertex 0.927051 2.85317 4
    endloop
  endfacet
  facet normal -0.406738 -0.913545 0
    outer loop
      vertex 0.927051 2.85317 0
      vertex 1.5 2.59808 0
      vertex 0.927051 2.85317 4
    endloop
  endfacet
  facet normal -0.587785 -0.809017 0
    outer loop
      vertex 2.00739 2.22943 0
      vertex 2.00739 2.22943 4
      vertex 1.5 2.59808 4
    endloop
  endfacet
  facet normal -0.587785 -0.809017 0
    outer loop
      vertex 1.5 2.59808 0
      vertex 2.00739 2.22943 0
      vertex 1.5 2.59808 4
    endloop
  endfacet
  facet normal -0.743144 -0.669131 0
    outer loop
      vertex 2.42705 1.76336 4
      vertex 2.00739 2.22943 4
      vertex 2.42705 1.76336 0
    endloop
  endfacet
  facet normal -0.743144 -0.669131 0
    outer loop
      vertex 2.42705 1.76336 0
      vertex 2.00739 2.22943 4
      vertex 2.00739 2.22943 0
    endloop
  endfacet
  facet normal -0.866026 -0.499999 0
    outer loop
      vertex 2.74064 1.22021 4
      vertex 2.42705 1.76336 4
      vertex 2.74064 1.22021 0
    endloop
  endfacet
  facet normal -0.866026 -0.499999 0
    outer loop
      vertex 2.74064 1.22021 0
      vertex 2.42705 1.76336 4
      vertex 2.42705 1.76336 0
    endloop
  endfacet
  facet normal -0.951056 -0.309018 0
    outer loop
      vertex 2.93444 0.623735 4
      vertex 2.74064 1.22021 4
      vertex 2.93444 0.623735 0
    endloop
  endfacet
  facet normal -0.951056 -0.309018 0
    outer loop
      vertex 2.93444 0.623735 0
      vertex 2.74064 1.22021 4
      vertex 2.74064 1.22021 0
    endloop
  endfacet
  facet normal -0.994522 -0.104528 0
    outer loop
      vertex 3 0 4
      vertex 2.93444 0.623735 4
      vertex 3 0 0
    endloop
  endfacet
  facet normal -0.994522 -0.104528 0
    outer loop
      vertex 3 0 0
      vertex 2.93444 0.623735 4
      vertex 2.93444 0.623735 0
    endloop
  endfacet
  facet normal -0.994522 0.104528 0
    outer loop
      vertex 3 0 4
      vertex 3 0 0
      vertex 2.93444 -0.623735 4
    endloop
  endfacet
  facet normal -0.994522 0.104528 0
    outer loop
      vertex 2.93444 -0.623735 4
      vertex 3 0 0
      vertex 2.93444 -0.623735 0
    endloop
  endfacet
  facet normal -0.951056 0.309018 0
    outer loop
      vertex 2.93444 -0.623735 4
      vertex 2.93444 -0.623735 0
      vertex 2.74064 -1.22021 4
    endloop
  endfacet
  facet normal -0.951056 0.309018 0
    outer loop
      vertex 2.74064 -1.22021 4
      vertex 2.93444 -0.623735 0
      vertex 2.74064 -1.22021 0
    endloop
  endfacet
  facet normal -0.866026 0.499999 0
    outer loop
      vertex 2.74064 -1.22021 4
      vertex 2.74064 -1.22021 0
      vertex 2.42705 -1.76336 4
    endloop
  endfacet
  facet normal -0.866026 0.499999 0
    outer loop
      vertex 2.42705 -1.76336 4
      vertex 2.74064 -1.22021 0
      vertex 2.42705 -1.76336 0
    endloop
  endfacet
  facet normal -0.743144 0.669131 0
    outer loop
      vertex 2.42705 -1.76336 4
      vertex 2.42705 -1.76336 0
      vertex 2.00739 -2.22943 4
    endloop
  endfacet
  facet normal -0.743144 0.669131 0
    outer loop
      vertex 2.00739 -2.22943 4
      vertex 2.42705 -1.76336 0
      vertex 2.00739 -2.22943 0
    endloop
  endfacet
  facet normal -0.587785 0.809017 0
    outer loop
      vertex 2.00739 -2.22943 4
      vertex 2.00739 -2.22943 0
      vertex 1.5 -2.59808 4
    endloop
  endfacet
  facet normal -0.587785 0.809017 0
    outer loop
      vertex 1.5 -2.59808 4
      vertex 2.00739 -2.22943 0
      vertex 1.5 -2.59808 0
    endloop
  endfacet
  facet normal -0.406738 0.913545 0
    outer loop
      vertex 1.5 -2.59808 4
      vertex 1.5 -2.59808 0
      vertex 0.927051 -2.85317 4
    endloop
  endfacet
  facet normal -0.406738 0.913545 0
    outer loop
      vertex 0.927051 -2.85317 4
      vertex 1.5 -2.59808 0
      vertex 0.927051 -2.85317 0
    endloop
  endfacet
  facet normal -0.207911 0.978148 0
    outer loop
      vertex 0.927051 -2.85317 4
      vertex 0.927051 -2.85317 0
      vertex 0.313585 -2.98357 4
    endloop
  endfacet
  facet normal -0.207911 0.978148 0
    outer loop
      vertex 0.313585 -2.98357 4
      vertex 0.927051 -2.85317 0
      vertex 0.313585 -2.98357 0
    endloop
  endfacet
  facet normal 0 1 0
    outer loop
      vertex 0.313585 -2.98357 4
      vertex 0.313585 -2.98357 0
      vertex -0.313585 -2.98357 4
    endloop
  endfacet
  facet normal 0 1 0
    outer loop
      vertex -0.313585 -2.98357 4
      vertex 0.313585 -2.98357 0
      vertex -0.313585 -2.98357 0
    endloop
  endfacet
  facet normal 0.207911 0.978148 0
    outer loop
      vertex -0.313585 -2.98357 4
      vertex -0.313585 -2.98357 0
      vertex -0.927051 -2.85317 4
    endloop
  endfacet
  facet normal 0.207911 0.978148 0
    outer loop
      vertex -0.927051 -2.85317 4
      vertex -0.313585 -2.98357 0
      vertex -0.927051 -2.85317 0
    endloop
  endfacet
  facet normal 0.406738 0.913545 0
    outer loop
      vertex -0.927051 -2.85317 4
      vertex -0.927051 -2.85317 0
      vertex -1.5 -2.59808 4
    endloop
  endfacet
  facet normal 0.406738 0.913545 0
    outer loop
      vertex -1.5 -2.59808 4
      vertex -0.927051 -2.85317 0
      vertex -1.5 -2.59808 0
    endloop
  endfacet
  facet normal 0.587785 0.809017 0
    outer loop
      vertex -1.5 -2.59808 4
      vertex -1.5 -2.59808 0
      vertex -2.00739 -2.22943 4
    endloop
  endfacet
  facet normal 0.587785 0.809017 0
    outer loop
      vertex -2.00739 -2.22943 4
      vertex -1.5 -2.59808 0
      vertex -2.00739 -2.22943 0
    endloop
  endfacet
  facet normal 0.743144 0.669131 0
    outer loop
      vertex -2.42705 -1.76336 4
      vertex -2.00739 -2.22943 4
      vertex -2.00739 -2.22943 0
    endloop
  endfacet
  facet normal 0.743144 0.669131 0
    outer loop
      vertex -2.42705 -1.76336 0
      vertex -2.42705 -1.76336 4
      vertex -2.00739 -2.22943 0
    endloop
  endfacet
  facet normal 0.866026 0.499999 0
    outer loop
      vertex -2.74064 -1.22021 4
      vertex -2.42705 -1.76336 4
      vertex -2.42705 -1.76336 0
    endloop
  endfacet
  facet normal 0.866026 0.499999 0
    outer loop
      vertex -2.74064 -1.22021 0
      vertex -2.74064 -1.22021 4
      vertex -2.42705 -1.76336 0
    endloop
  endfacet
  facet normal 0.951056 0.309018 0
    outer loop
      vertex -2.93444 -0.623735 4
      vertex -2.74064 -1.22021 4
      vertex -2.74064 -1.22021 0
    endloop
  endfacet
  facet normal 0.951056 0.309018 0
    outer loop
      vertex -2.93444 -0.623735 0
      vertex -2.93444 -0.623735 4
      vertex -2.74064 -1.22021 0
    endloop
  endfacet
  facet normal 0.987689 -0.156433 0
    outer loop
      vertex 9.79894 0.309017 0
      vertex 9.79894 0.309017 4
      vertex 9.75 0 4
    endloop
  endfacet
  facet normal 0.987689 -0.156433 0
    outer loop
      vertex 9.75 0 0
      vertex 9.79894 0.309017 0
      vertex 9.75 0 4
    endloop
  endfacet
  facet normal 0.987689 0.156433 0
    outer loop
      vertex 9.75 0 4
      vertex 9.79894 -0.309017 4
      vertex 9.79894 -0.309017 0
    endloop
  endfacet
  facet normal 0.987689 0.156433 0
    outer loop
      vertex 9.75 0 0
      vertex 9.75 0 4
      vertex 9.79894 -0.309017 0
    endloop
  endfacet
  facet normal 0.891006 -0.453992 0
    outer loop
      vertex 9.94098 0.587785 0
      vertex 9.94098 0.587785 4
      vertex 9.79894 0.309017 4
    endloop
  endfacet
  facet normal 0.891006 -0.453992 0
    outer loop
      vertex 9.79894 0.309017 0
      vertex 9.94098 0.587785 0
      vertex 9.79894 0.309017 4
    endloop
  endfacet
  facet normal 0.707107 -0.707107 0
    outer loop
      vertex 10.1622 0.809017 0
      vertex 10.1622 0.809017 4
      vertex 9.94098 0.587785 4
    endloop
  endfacet
  facet normal 0.707107 -0.707107 0
    outer loop
      vertex 9.94098 0.587785 0
      vertex 10.1622 0.809017 0
      vertex 9.94098 0.587785 4
    endloop
  endfacet
  facet normal 0.453992 -0.891006 0
    outer loop
      vertex 10.441 0.951057 0
      vertex 10.441 0.951057 4
      vertex 10.1622 0.809017 4
    endloop
  endfacet
  facet normal 0.453992 -0.891006 0
    outer loop
      vertex 10.1622 0.809017 0
      vertex 10.441 0.951057 0
      vertex 10.1622 0.809017 4
    endloop
  endfacet
  facet normal 0.156433 -0.987689 0
    outer loop
      vertex 10.75 1 0
      vertex 10.75 1 4
      vertex 10.441 0.951057 4
    endloop
  endfacet
  facet normal 0.156433 -0.987689 0
    outer loop
      vertex 10.441 0.951057 0
      vertex 10.75 1 0
      vertex 10.441 0.951057 4
    endloop
  endfacet
  facet normal -0.156433 -0.987689 0
    outer loop
      vertex 11.059 0.951057 0
      vertex 11.059 0.951057 4
      vertex 10.75 1 4
    endloop
  endfacet
  facet normal -0.156433 -0.987689 0
    outer loop
      vertex 10.75 1 0
      vertex 11.059 0.951057 0
      vertex 10.75 1 4
    endloop
  endfacet
  facet normal -0.453992 -0.891006 0
    outer loop
      vertex 11.3378 0.809017 0
      vertex 11.3378 0.809017 4
      vertex 11.059 0.951057 4
    endloop
  endfacet
  facet normal -0.453992 -0.891006 0
    outer loop
      vertex 11.059 0.951057 0
      vertex 11.3378 0.809017 0
      vertex 11.059 0.951057 4
    endloop
  endfacet
  facet normal -0.707107 -0.707107 0
    outer loop
      vertex 11.559 0.587785 0
      vertex 11.559 0.587785 4
      vertex 11.3378 0.809017 4
    endloop
  endfacet
  facet normal -0.707107 -0.707107 0
    outer loop
      vertex 11.3378 0.809017 0
      vertex 11.559 0.587785 0
      vertex 11.3378 0.809017 4
    endloop
  endfacet
  facet normal -0.891006 -0.453992 0
    outer loop
      vertex 11.7011 0.309017 4
      vertex 11.559 0.587785 4
      vertex 11.7011 0.309017 0
    endloop
  endfacet
  facet normal -0.891006 -0.453992 0
    outer loop
      vertex 11.7011 0.309017 0
      vertex 11.559 0.587785 4
      vertex 11.559 0.587785 0
    endloop
  endfacet
  facet normal -0.987689 -0.156433 0
    outer loop
      vertex 11.75 0 4
      vertex 11.7011 0.309017 4
      vertex 11.75 0 0
    endloop
  endfacet
  facet normal -0.987689 -0.156433 0
    outer loop
      vertex 11.75 0 0
      vertex 11.7011 0.309017 4
      vertex 11.7011 0.309017 0
    endloop
  endfacet
  facet normal -0.987689 0.156433 0
    outer loop
      vertex 11.75 0 4
      vertex 11.75 0 0
      vertex 11.7011 -0.309017 4
    endloop
  endfacet
  facet normal -0.987689 0.156433 0
    outer loop
      vertex 11.7011 -0.309017 4
      vertex 11.75 0 0
      vertex 11.7011 -0.309017 0
    endloop
  endfacet
  facet normal -0.891006 0.453992 0
    outer loop
      vertex 11.7011 -0.309017 4
      vertex 11.7011 -0.309017 0
      vertex 11.559 -0.587785 4
    endloop
  endfacet
  facet normal -0.891006 0.453992 0
    outer loop
      vertex 11.559 -0.587785 4
      vertex 11.7011 -0.309017 0
      vertex 11.559 -0.587785 0
    endloop
  endfacet
  facet normal -0.707107 0.707107 0
    outer loop
      vertex 11.559 -0.587785 4
      vertex 11.559 -0.587785 0
      vertex 11.3378 -0.809017 4
    endloop
  endfacet
  facet normal -0.707107 0.707107 0
    outer loop
      vertex 11.3378 -0.809017 4
      vertex 11.559 -0.587785 0
      vertex 11.3378 -0.809017 0
    endloop
  endfacet
  facet normal -0.453992 0.891006 0
    outer loop
      vertex 11.3378 -0.809017 4
      vertex 11.3378 -0.809017 0
      vertex 11.059 -0.951057 4
    endloop
  endfacet
  facet normal -0.453992 0.891006 0
    outer loop
      vertex 11.059 -0.951057 4
      vertex 11.3378 -0.809017 0
      vertex 11.059 -0.951057 0
    endloop
  endfacet
  facet normal -0.156433 0.987689 0
    outer loop
      vertex 11.059 -0.951057 4
      vertex 11.059 -0.951057 0
      vertex 10.75 -1 4
    endloop
  endfacet
  facet normal -0.156433 0.987689 0
    outer loop
      vertex 10.75 -1 4
      vertex 11.059 -0.951057 0
      vertex 10.75 -1 0
    endloop
  endfacet
  facet normal 0.156433 0.987689 0
    outer loop
      vertex 10.75 -1 4
      vertex 10.75 -1 0
      vertex 10.441 -0.951057 4
    endloop
  endfacet
  facet normal 0.156433 0.987689 0
    outer loop
      vertex 10.441 -0.951057 4
      vertex 10.75 -1 0
      vertex 10.441 -0.951057 0
    endloop
  endfacet
  facet normal 0.453992 0.891006 0
    outer loop
      vertex 10.441 -0.951057 4
      vertex 10.441 -0.951057 0
      vertex 10.1622 -0.809017 4
    endloop
  endfacet
  facet normal 0.453992 0.891006 0
    outer loop
      vertex 10.1622 -0.809017 4
      vertex 10.441 -0.951057 0
      vertex 10.1622 -0.809017 0
    endloop
  endfacet
  facet normal 0.707107 0.707107 0
    outer loop
      vertex 10.1622 -0.809017 4
      vertex 10.1622 -0.809017 0
      vertex 9.94098 -0.587785 4
    endloop
  endfacet
  facet normal 0.707107 0.707107 0
    outer loop
      vertex 9.94098 -0.587785 4
      vertex 10.1622 -0.809017 0
      vertex 9.94098 -0.587785 0
    endloop
  endfacet
  facet normal 0.891006 0.453992 0
    outer loop
      vertex 9.79894 -0.309017 4
      vertex 9.94098 -0.587785 4
      vertex 9.94098 -0.587785 0
    endloop
  endfacet
  facet normal 0.891006 0.453992 0
    outer loop
      vertex 9.79894 -0.309017 0
      vertex 9.79894 -0.309017 4
      vertex 9.94098 -0.587785 0
    endloop
  endfacet
  facet normal 0 0 1
    outer loop
      vertex -29.6306 4.69303 4
      vertex -30 0 4
      vertex -29.6306 -4.69303 4
    endloop
  endfacet
  facet normal 0 0 1
    outer loop
      vertex -26.7302 -13.6197 4
      vertex -29.6306 4.69303 4
      vertex -28.5317 -9.27051 4
    endloop
  endfacet
  facet normal 0 0 1
    outer loop
      vertex -28.5317 -9.27051 4
      vertex -29.6306 4.69303 4
      vertex -29.6306 -4.69303 4
    endloop
  endfacet
  facet normal 0 0 1
    outer loop
      vertex -24.2705 -17.6336 4
      vertex -29.6306 4.69303 4
      vertex -26.7302 -13.6197 4
    endloop
  endfacet
  facet normal 0 0 1
    outer loop
      vertex -21.2132 -21.2132 4
      vertex -29.6306 4.69303 4
      vertex -24.2705 -17.6336 4
    endloop
  endfacet
  facet normal 0 0 1
    outer loop
      vertex -17.6336 -24.2705 4
      vertex -29.6306 4.69303 4
      vertex -21.2132 -21.2132 4
    endloop
  endfacet
  facet normal 0 0 1
    outer loop
      vertex -24.5 -7 4
      vertex -29.6306 4.69303 4
      vertex -17.6336 -24.2705 4
    endloop
  endfacet
  facet normal 0 0 1
    outer loop
      vertex -24.5 13 4
      vertex -4.69303 29.6306 4
      vertex -9.27051 28.5317 4
    endloop
  endfacet
  facet normal 0 0 1
    outer loop
      vertex -24.5 13 4
      vertex 0 30 4
      vertex -4.69303 29.6306 4
    endloop
  endfacet
  facet normal 0 0 1
    outer loop
      vertex 24.5 13 4
      vertex 24.5 -7 4
      vertex 29.6306 -4.69303 4
    endloop
  endfacet
  facet normal 0 0 1
    outer loop
      vertex 24.5 13 4
      vertex 29.6306 -4.69303 4
      vertex 30 0 4
    endloop
  endfacet
  facet normal 0 0 1
    outer loop
      vertex 24.5 13 4
      vertex 30 0 4
      vertex 29.6306 4.69303 4
    endloop
  endfacet
  facet normal 0 0 1
    outer loop
      vertex 24.5 13 4
      vertex 29.6306 4.69303 4
      vertex 28.5317 9.27051 4
    endloop
  endfacet
  facet normal 0 0 1
    outer loop
      vertex 11.059 0.951057 4
      vertex 1.5 2.59808 4
      vertex 10.75 1 4
    endloop
  endfacet
  facet normal 0 0 1
    outer loop
      vertex -10.441 0.951057 4
      vertex -3 0 4
      vertex -10.75 1 4
    endloop
  endfacet
  facet normal 0 0 1
    outer loop
      vertex 2.42705 1.76336 4
      vertex 2.74064 1.22021 4
      vertex 10.441 0.951057 4
    endloop
  endfacet
  facet normal 0 0 1
    outer loop
      vertex -2.93444 -0.623735 4
      vertex -10.1622 0.809017 4
      vertex -9.94098 0.587785 4
    endloop
  endfacet
  facet normal 0 0 1
    outer loop
      vertex -21.2132 21.2132 4
      vertex -29.6306 4.69303 4
      vertex -17.6336 24.2705 4
    endloop
  endfacet
  facet normal 0 0 1
    outer loop
      vertex -24.2705 17.6336 4
      vertex -29.6306 4.69303 4
      vertex -21.2132 21.2132 4
    endloop
  endfacet
  facet normal 0 0 1
    outer loop
      vertex -26.7302 13.6197 4
      vertex -29.6306 4.69303 4
      vertex -24.2705 17.6336 4
    endloop
  endfacet
  facet normal 0 0 1
    outer loop
      vertex -28.5317 9.27051 4
      vertex -29.6306 4.69303 4
      vertex -26.7302 13.6197 4
    endloop
  endfacet
  facet normal 0 0 1
    outer loop
      vertex -13.6197 -26.7302 4
      vertex -24.5 -7 4
      vertex -17.6336 -24.2705 4
    endloop
  endfacet
  facet normal 0 0 1
    outer loop
      vertex -24.5 13 4
      vertex -9.27051 28.5317 4
      vertex -13.6197 26.7302 4
    endloop
  endfacet
  facet normal 0 0 1
    outer loop
      vertex -17.6336 24.2705 4
      vertex -24.5 13 4
      vertex -13.6197 26.7302 4
    endloop
  endfacet
  facet normal 0 0 1
    outer loop
      vertex -17.6336 24.2705 4
      vertex -29.6306 4.69303 4
      vertex -24.5 13 4
    endloop
  endfacet
  facet normal 0 0 1
    outer loop
      vertex 26.7302 13.6197 4
      vertex 24.5 13 4
      vertex 28.5317 9.27051 4
    endloop
  endfacet
  facet normal 0 0 1
    outer loop
      vertex 29.6306 -4.69303 4
      vertex 24.5 -7 4
      vertex 28.5317 -9.27051 4
    endloop
  endfacet
  facet normal 0 0 1
    outer loop
      vertex 10.1622 0.809017 4
      vertex 10.441 0.951057 4
      vertex 2.74064 1.22021 4
    endloop
  endfacet
  facet normal 0 0 1
    outer loop
      vertex 24.5 -7 4
      vertex 21.5 -7 4
      vertex 28.5317 -9.27051 4
    endloop
  endfacet
  facet normal 0 0 1
    outer loop
      vertex -4.69303 -29.6306 4
      vertex -21.5 -7 4
      vertex -9.27051 -28.5317 4
    endloop
  endfacet
  facet normal 0 0 1
    outer loop
      vertex -2.74064 -1.22021 4
      vertex -9.94098 0.587785 4
      vertex -9.79894 0.309017 4
    endloop
  endfacet
  facet normal 0 0 1
    outer loop
      vertex 11.059 0.951057 4
      vertex 0.927051 2.85317 4
      vertex 1.5 2.59808 4
    endloop
  endfacet
  facet normal 0 0 1
    outer loop
      vertex 2.42705 1.76336 4
      vertex 10.441 0.951057 4
      vertex 10.75 1 4
    endloop
  endfacet
  facet normal 0 0 1
    outer loop
      vertex 2.00739 2.22943 4
      vertex 2.42705 1.76336 4
      vertex 10.75 1 4
    endloop
  endfacet
  facet normal 0 0 1
    outer loop
      vertex 21.5 -7 4
      vertex 2.74064 -1.22021 4
      vertex 2.42705 -1.76336 4
    endloop
  endfacet
  facet normal 0 0 1
    outer loop
      vertex 21.5 -7 4
      vertex 2.93444 -0.623735 4
      vertex 2.74064 -1.22021 4
    endloop
  endfacet
  facet normal 0 0 1
    outer loop
      vertex 9.79894 0.309017 4
      vertex 9.94098 0.587785 4
      vertex 2.93444 0.623735 4
    endloop
  endfacet
  facet normal 0 0 1
    outer loop
      vertex -9.79894 -0.309017 4
      vertex -9.94098 -0.587785 4
      vertex -2.00739 -2.22943 4
    endloop
  endfacet
  facet normal 0 0 1
    outer loop
      vertex 0.927051 -2.85317 4
      vertex 0.313585 -2.98357 4
      vertex 28.5317 -9.27051 4
    endloop
  endfacet
  facet normal 0 0 1
    outer loop
      vertex 10.75 1 4
      vertex 1.5 2.59808 4
      vertex 2.00739 2.22943 4
    endloop
  endfacet
  facet normal 0 0 1
    outer loop
      vertex -9.94098 -0.587785 4
      vertex -10.1622 -0.809017 4
      vertex -1.5 -2.59808 4
    endloop
  endfacet
  facet normal 0 0 1
    outer loop
      vertex -2.93444 -0.623735 4
      vertex -3 0 4
      vertex -10.441 0.951057 4
    endloop
  endfacet
  facet normal 0 0 1
    outer loop
      vertex -0.927051 -2.85317 4
      vertex -10.1622 -0.809017 4
      vertex 26.7302 -13.6197 4
    endloop
  endfacet
  facet normal 0 0 1
    outer loop
      vertex 0.313585 2.98357 4
      vertex -21.5 5 4
      vertex -0.313585 2.98357 4
    endloop
  endfacet
  facet normal 0 0 1
    outer loop
      vertex -10.441 -0.951057 4
      vertex -10.75 -1 4
      vertex 26.7302 -13.6197 4
    endloop
  endfacet
  facet normal 0 0 1
    outer loop
      vertex 11.059 0.951057 4
      vertex 21.5 5 4
      vertex 0.313585 2.98357 4
    endloop
  endfacet
  facet normal 0 0 1
    outer loop
      vertex -10.75 -1 4
      vertex -11.059 -0.951057 4
      vertex 26.7302 -13.6197 4
    endloop
  endfacet
  facet normal 0 0 1
    outer loop
      vertex 11.3378 0.809017 4
      vertex 21.5 5 4
      vertex 11.059 0.951057 4
    endloop
  endfacet
  facet normal 0 0 1
    outer loop
      vertex 0.313585 2.98357 4
      vertex 21.5 5 4
      vertex -21.5 5 4
    endloop
  endfacet
  facet normal 0 0 1
    outer loop
      vertex 11.059 0.951057 4
      vertex 0.313585 2.98357 4
      vertex 0.927051 2.85317 4
    endloop
  endfacet
  facet normal 0 0 1
    outer loop
      vertex 2.74064 1.22021 4
      vertex 2.93444 0.623735 4
      vertex 9.94098 0.587785 4
    endloop
  endfacet
  facet normal 0 0 1
    outer loop
      vertex 21.5 -7 4
      vertex 3 0 4
      vertex 2.93444 -0.623735 4
    endloop
  endfacet
  facet normal 0 0 1
    outer loop
      vertex 21.5 -7 4
      vertex 11.3378 -0.809017 4
      vertex 11.059 -0.951057 4
    endloop
  endfacet
  facet normal 0 0 1
    outer loop
      vertex 2.00739 -2.22943 4
      vertex 1.5 -2.59808 4
      vertex 21.5 -7 4
    endloop
  endfacet
  facet normal 0 0 1
    outer loop
      vertex 2.93444 0.623735 4
      vertex 3 0 4
      vertex 9.75 0 4
    endloop
  endfacet
  facet normal 0 0 1
    outer loop
      vertex 21.5 -7 4
      vertex 11.559 -0.587785 4
      vertex 11.3378 -0.809017 4
    endloop
  endfacet
  facet normal 0 0 1
    outer loop
      vertex 21.5 -7 4
      vertex 10.75 -1 4
      vertex 3 0 4
    endloop
  endfacet
  facet normal 0 0 1
    outer loop
      vertex 2.93444 0.623735 4
      vertex 9.75 0 4
      vertex 9.79894 0.309017 4
    endloop
  endfacet
  facet normal 0 0 1
    outer loop
      vertex 1.5 -2.59808 4
      vertex 0.927051 -2.85317 4
      vertex 28.5317 -9.27051 4
    endloop
  endfacet
  facet normal 0 0 1
    outer loop
      vertex 21.5 -7 4
      vertex 1.5 -2.59808 4
      vertex 28.5317 -9.27051 4
    endloop
  endfacet
  facet normal 0 0 1
    outer loop
      vertex -2.42705 -1.76336 4
      vertex -9.79894 0.309017 4
      vertex -9.75 0 4
    endloop
  endfacet
  facet normal 0 0 1
    outer loop
      vertex -2.00739 -2.22943 4
      vertex -9.75 0 4
      vertex -9.79894 -0.309017 4
    endloop
  endfacet
  facet normal 0 0 1
    outer loop
      vertex -2.74064 -1.22021 4
      vertex -2.93444 -0.623735 4
      vertex -9.94098 0.587785 4
    endloop
  endfacet
  facet normal 0 0 1
    outer loop
      vertex 28.5317 -9.27051 4
      vertex -0.313585 -2.98357 4
      vertex 26.7302 -13.6197 4
    endloop
  endfacet
  facet normal 0 0 1
    outer loop
      vertex -0.313585 -2.98357 4
      vertex -0.927051 -2.85317 4
      vertex 26.7302 -13.6197 4
    endloop
  endfacet
  facet normal 0 0 1
    outer loop
      vertex -1.5 -2.59808 4
      vertex -2.00739 -2.22943 4
      vertex -9.94098 -0.587785 4
    endloop
  endfacet
  facet normal 0 0 1
    outer loop
      vertex -0.927051 -2.85317 4
      vertex -1.5 -2.59808 4
      vertex -10.1622 -0.809017 4
    endloop
  endfacet
  facet normal 0 0 1
    outer loop
      vertex -10.1622 -0.809017 4
      vertex -10.441 -0.951057 4
      vertex 26.7302 -13.6197 4
    endloop
  endfacet
  facet normal 0 0 1
    outer loop
      vertex -2.00739 -2.22943 4
      vertex -2.42705 -1.76336 4
      vertex -9.75 0 4
    endloop
  endfacet
  facet normal 0 0 1
    outer loop
      vertex 0.313585 -2.98357 4
      vertex -0.313585 -2.98357 4
      vertex 28.5317 -9.27051 4
    endloop
  endfacet
  facet normal 0 0 1
    outer loop
      vertex -2.93444 -0.623735 4
      vertex -10.441 0.951057 4
      vertex -10.1622 0.809017 4
    endloop
  endfacet
  facet normal 0 0 1
    outer loop
      vertex 21.5 -7 4
      vertex 11.559 0.587785 4
      vertex 11.7011 0.309017 4
    endloop
  endfacet
  facet normal 0 0 1
    outer loop
      vertex 9.79894 -0.309017 4
      vertex 9.75 0 4
      vertex 3 0 4
    endloop
  endfacet
  facet normal 0 0 1
    outer loop
      vertex 2.42705 -1.76336 4
      vertex 2.00739 -2.22943 4
      vertex 21.5 -7 4
    endloop
  endfacet
  facet normal 0 0 1
    outer loop
      vertex 9.94098 0.587785 4
      vertex 10.1622 0.809017 4
      vertex 2.74064 1.22021 4
    endloop
  endfacet
  facet normal 0 0 1
    outer loop
      vertex 10.441 -0.951057 4
      vertex 10.1622 -0.809017 4
      vertex 3 0 4
    endloop
  endfacet
  facet normal 0 0 1
    outer loop
      vertex 21.5 -7 4
      vertex 21.5 5 4
      vertex 11.3378 0.809017 4
    endloop
  endfacet
  facet normal 0 0 1
    outer loop
      vertex 21.5 -7 4
      vertex 11.3378 0.809017 4
      vertex 11.559 0.587785 4
    endloop
  endfacet
  facet normal 0 0 1
    outer loop
      vertex 21.5 -7 4
      vertex 11.7011 0.309017 4
      vertex 11.75 0 4
    endloop
  endfacet
  facet normal 0 0 1
    outer loop
      vertex 21.5 -7 4
      vertex 11.75 0 4
      vertex 11.7011 -0.309017 4
    endloop
  endfacet
  facet normal 0 0 1
    outer loop
      vertex 21.5 -7 4
      vertex 11.7011 -0.309017 4
      vertex 11.559 -0.587785 4
    endloop
  endfacet
  facet normal 0 0 1
    outer loop
      vertex 10.441 -0.951057 4
      vertex 3 0 4
      vertex 10.75 -1 4
    endloop
  endfacet
  facet normal 0 0 1
    outer loop
      vertex 10.1622 -0.809017 4
      vertex 9.94098 -0.587785 4
      vertex 3 0 4
    endloop
  endfacet
  facet normal 0 0 1
    outer loop
      vertex 9.79894 -0.309017 4
      vertex 3 0 4
      vertex 9.94098 -0.587785 4
    endloop
  endfacet
  facet normal 0 0 1
    outer loop
      vertex -21.5 -7 4
      vertex -13.6197 -26.7302 4
      vertex -9.27051 -28.5317 4
    endloop
  endfacet
  facet normal 0 0 1
    outer loop
      vertex -21.5 -7 4
      vertex -24.5 -7 4
      vertex -13.6197 -26.7302 4
    endloop
  endfacet
  facet normal 0 0 1
    outer loop
      vertex -24.5 13 4
      vertex 4.69303 29.6306 4
      vertex 0 30 4
    endloop
  endfacet
  facet normal 0 0 1
    outer loop
      vertex -24.5 13 4
      vertex 9.27051 28.5317 4
      vertex 4.69303 29.6306 4
    endloop
  endfacet
  facet normal 0 0 1
    outer loop
      vertex -24.5 13 4
      vertex 13.6197 26.7302 4
      vertex 9.27051 28.5317 4
    endloop
  endfacet
  facet normal 0 0 1
    outer loop
      vertex -24.5 13 4
      vertex 17.6336 24.2705 4
      vertex 13.6197 26.7302 4
    endloop
  endfacet
  facet normal 0 0 1
    outer loop
      vertex -24.5 13 4
      vertex 21.2132 21.2132 4
      vertex 17.6336 24.2705 4
    endloop
  endfacet
  facet normal 0 0 1
    outer loop
      vertex -24.5 13 4
      vertex 24.2705 17.6336 4
      vertex 21.2132 21.2132 4
    endloop
  endfacet
  facet normal 0 0 1
    outer loop
      vertex -24.5 13 4
      vertex 26.7302 13.6197 4
      vertex 24.2705 17.6336 4
    endloop
  endfacet
  facet normal 0 0 1
    outer loop
      vertex -24.5 13 4
      vertex 24.5 13 4
      vertex 26.7302 13.6197 4
    endloop
  endfacet
  facet normal 0 0 1
    outer loop
      vertex -21.5 5 4
      vertex -0.927051 2.85317 4
      vertex -0.313585 2.98357 4
    endloop
  endfacet
  facet normal 0 0 1
    outer loop
      vertex -21.5 5 4
      vertex -1.5 2.59808 4
      vertex -0.927051 2.85317 4
    endloop
  endfacet
  facet normal 0 0 1
    outer loop
      vertex -21.5 5 4
      vertex -2.00739 2.22943 4
      vertex -1.5 2.59808 4
    endloop
  endfacet
  facet normal 0 0 1
    outer loop
      vertex -21.5 5 4
      vertex -2.42705 1.76336 4
      vertex -2.00739 2.22943 4
    endloop
  endfacet
  facet normal 0 0 1
    outer loop
      vertex -21.5 5 4
      vertex -2.74064 1.22021 4
      vertex -2.42705 1.76336 4
    endloop
  endfacet
  facet normal 0 0 1
    outer loop
      vertex -21.5 5 4
      vertex -2.93444 0.623735 4
      vertex -2.74064 1.22021 4
    endloop
  endfacet
  facet normal 0 0 1
    outer loop
      vertex 21.5 -7 4
      vertex 11.059 -0.951057 4
      vertex 10.75 -1 4
    endloop
  endfacet
  facet normal 0 0 1
    outer loop
      vertex -21.5 5 4
      vertex -3 0 4
      vertex -2.93444 0.623735 4
    endloop
  endfacet
  facet normal 0 0 1
    outer loop
      vertex -21.5 5 4
      vertex -10.75 1 4
      vertex -3 0 4
    endloop
  endfacet
  facet normal 0 0 1
    outer loop
      vertex -21.5 5 4
      vertex -11.059 0.951057 4
      vertex -10.75 1 4
    endloop
  endfacet
  facet normal 0 0 1
    outer loop
      vertex -21.5 5 4
      vertex -11.3378 0.809017 4
      vertex -11.059 0.951057 4
    endloop
  endfacet
  facet normal 0 0 1
    outer loop
      vertex -21.5 5 4
      vertex -11.559 0.587785 4
      vertex -11.3378 0.809017 4
    endloop
  endfacet
  facet normal 0 0 1
    outer loop
      vertex -2.42705 -1.76336 4
      vertex -2.74064 -1.22021 4
      vertex -9.79894 0.309017 4
    endloop
  endfacet
  facet normal 0 0 1
    outer loop
      vertex -21.5 5 4
      vertex -11.7011 0.309017 4
      vertex -11.559 0.587785 4
    endloop
  endfacet
  facet normal 0 0 1
    outer loop
      vertex -21.5 5 4
      vertex -11.75 0 4
      vertex -11.7011 0.309017 4
    endloop
  endfacet
  facet normal 0 0 1
    outer loop
      vertex -21.5 5 4
      vertex -11.7011 -0.309017 4
      vertex -11.75 0 4
    endloop
  endfacet
  facet normal 0 0 1
    outer loop
      vertex -21.5 5 4
      vertex -11.559 -0.587785 4
      vertex -11.7011 -0.309017 4
    endloop
  endfacet
  facet normal 0 0 1
    outer loop
      vertex -21.5 5 4
      vertex -11.3378 -0.809017 4
      vertex -11.559 -0.587785 4
    endloop
  endfacet
  facet normal 0 0 1
    outer loop
      vertex -11.059 -0.951057 4
      vertex 24.2705 -17.6336 4
      vertex 26.7302 -13.6197 4
    endloop
  endfacet
  facet normal 0 0 1
    outer loop
      vertex -11.059 -0.951057 4
      vertex 21.2132 -21.2132 4
      vertex 24.2705 -17.6336 4
    endloop
  endfacet
  facet normal 0 0 1
    outer loop
      vertex -11.3378 -0.809017 4
      vertex 21.2132 -21.2132 4
      vertex -11.059 -0.951057 4
    endloop
  endfacet
  facet normal 0 0 1
    outer loop
      vertex -21.5 5 4
      vertex 21.2132 -21.2132 4
      vertex -11.3378 -0.809017 4
    endloop
  endfacet
  facet normal 0 0 1
    outer loop
      vertex -21.5 5 4
      vertex 17.6336 -24.2705 4
      vertex 21.2132 -21.2132 4
    endloop
  endfacet
  facet normal 0 0 1
    outer loop
      vertex -21.5 5 4
      vertex 13.6197 -26.7302 4
      vertex 17.6336 -24.2705 4
    endloop
  endfacet
  facet normal 0 0 1
    outer loop
      vertex -21.5 5 4
      vertex 9.27051 -28.5317 4
      vertex 13.6197 -26.7302 4
    endloop
  endfacet
  facet normal 0 0 1
    outer loop
      vertex -21.5 5 4
      vertex 4.69303 -29.6306 4
      vertex 9.27051 -28.5317 4
    endloop
  endfacet
  facet normal 0 0 1
    outer loop
      vertex -21.5 5 4
      vertex 0 -30 4
      vertex 4.69303 -29.6306 4
    endloop
  endfacet
  facet normal 0 0 1
    outer loop
      vertex -21.5 5 4
      vertex -4.69303 -29.6306 4
      vertex 0 -30 4
    endloop
  endfacet
  facet normal 0 0 1
    outer loop
      vertex -21.5 5 4
      vertex -21.5 -7 4
      vertex -4.69303 -29.6306 4
    endloop
  endfacet
  facet normal 0 0 1
    outer loop
      vertex -24.5 -7 4
      vertex -24.5 13 4
      vertex -29.6306 4.69303 4
    endloop
  endfacet
  facet normal -1 0 0
    outer loop
      vertex -24.5 -7 4
      vertex -24.5 -7 24
      vertex -24.5 13 4
    endloop
  endfacet
  facet normal -1 0 0
    outer loop
      vertex -24.5 13 4
      vertex -24.5 -7 24
      vertex -24.5 13 24
    endloop
  endfacet
  facet normal 0 -1 0
    outer loop
      vertex -24.5 -7 24
      vertex -24.5 -7 4
      vertex -21.5 -7 4
    endloop
  endfacet
  facet normal 0 -1 0
    outer loop
      vertex -21.5 -7 24
      vertex -24.5 -7 24
      vertex -21.5 -7 4
    endloop
  endfacet
  facet normal 1 0 0
    outer loop
      vertex -21.5 -7 24
      vertex -21.5 -7 4
      vertex -21.5 5 4
    endloop
  endfacet
  facet normal 1 0 0
    outer loop
      vertex -21.5 5 24
      vertex -21.5 -7 24
      vertex -21.5 5 4
    endloop
  endfacet
  facet normal 0 1 0
    outer loop
      vertex -21.5 5 24
      vertex -21.5 5 4
      vertex -23.5 5 24
    endloop
  endfacet
  facet normal 0 1 0
    outer loop
      vertex -23.5 5 3
      vertex -21.5 5 4
      vertex 23.5 5 3
    endloop
  endfacet
  facet normal 0 1 0
    outer loop
      vertex 23.5 5 24
      vertex 21.5 5 4
      vertex 21.5 5 24
    endloop
  endfacet
  facet normal 0 1 0
    outer loop
      vertex 23.5 5 3
      vertex 21.5 5 4
      vertex 23.5 5 24
    endloop
  endfacet
  facet normal 0 1 0
    outer loop
      vertex -21.5 5 4
      vertex 21.5 5 4
      vertex 23.5 5 3
    endloop
  endfacet
  facet normal 0 1 0
    outer loop
      vertex -23.5 5 24
      vertex -21.5 5 4
      vertex -23.5 5 3
    endloop
  endfacet
  facet normal -1 0 0
    outer loop
      vertex 21.5 -7 4
      vertex 21.5 -7 24
      vertex 21.5 5 4
    endloop
  endfacet
  facet normal -1 0 0
    outer loop
      vertex 21.5 5 4
      vertex 21.5 -7 24
      vertex 21.5 5 24
    endloop
  endfacet
  facet normal 0 -1 0
    outer loop
      vertex 21.5 -7 24
      vertex 21.5 -7 4
      vertex 24.5 -7 4
    endloop
  endfacet
  facet normal 0 -1 0
    outer loop
      vertex 24.5 -7 24
      vertex 21.5 -7 24
      vertex 24.5 -7 4
    endloop
  endfacet
  facet normal 1 0 0
    outer loop
      vertex 24.5 -7 24
      vertex 24.5 -7 4
      vertex 24.5 13 4
    endloop
  endfacet
  facet normal 1 0 0
    outer loop
      vertex 24.5 13 24
      vertex 24.5 -7 24
      vertex 24.5 13 4
    endloop
  endfacet
  facet normal 0 1 0
    outer loop
      vertex -24.5 13 4
      vertex -24.5 13 24
      vertex 24.5 13 4
    endloop
  endfacet
  facet normal 0 1 0
    outer loop
      vertex 24.5 13 4
      vertex -24.5 13 24
      vertex 24.5 13 24
    endloop
  endfacet
  facet normal 0 0 1
    outer loop
      vertex -23.5 5 24
      vertex -24.5 -7 24
      vertex -21.5 -7 24
    endloop
  endfacet
  facet normal 0 0 1
    outer loop
      vertex -23.5 9 24
      vertex -21.5 9 24
      vertex -24.5 13 24
    endloop
  endfacet
  facet normal 0 0 1
    outer loop
      vertex -24.5 13 24
      vertex -24.5 -7 24
      vertex -23.5 5 24
    endloop
  endfacet
  facet normal 0 0 1
    outer loop
      vertex 21.5 5 24
      vertex 21.5 -7 24
      vertex 23.5 5 24
    endloop
  endfacet
  facet normal 0 0 1
    outer loop
      vertex -21.5 10 24
      vertex -24.5 13 24
      vertex -21.5 9 24
    endloop
  endfacet
  facet normal 0 0 1
    outer loop
      vertex 21.5 10 24
      vertex -24.5 13 24
      vertex -21.5 10 24
    endloop
  endfacet
  facet normal 0 0 1
    outer loop
      vertex 24.5 13 24
      vertex -24.5 13 24
      vertex 21.5 10 24
    endloop
  endfacet
  facet normal 0 0 1
    outer loop
      vertex 23.5 9 24
      vertex 21.5 10 24
      vertex 21.5 9 24
    endloop
  endfacet
  facet normal 0 0 1
    outer loop
      vertex 24.5 13 24
      vertex 21.5 10 24
      vertex 23.5 9 24
    endloop
  endfacet
  facet normal 0 0 1
    outer loop
      vertex 24.5 -7 24
      vertex 23.5 9 24
      vertex 23.5 5 24
    endloop
  endfacet
  facet normal 0 0 1
    outer loop
      vertex 24.5 -7 24
      vertex 23.5 5 24
      vertex 21.5 -7 24
    endloop
  endfacet
  facet normal 0 0 1
    outer loop
      vertex 24.5 13 24
      vertex 23.5 9 24
      vertex 24.5 -7 24
    endloop
  endfacet
  facet normal 0 0 1
    outer loop
      vertex -23.5 5 24
      vertex -23.5 9 24
      vertex -24.5 13 24
    endloop
  endfacet
  facet normal 0 0 1
    outer loop
      vertex -21.5 5 24
      vertex -23.5 5 24
      vertex -21.5 -7 24
    endloop
  endfacet
  facet normal 1 0 0
    outer loop
      vertex -23.5 9 3
      vertex -23.5 9 24
      vertex -23.5 5 24
    endloop
  endfacet
  facet normal 1 0 0
    outer loop
      vertex -23.5 5 3
      vertex -23.5 9 3
      vertex -23.5 5 24
    endloop
  endfacet
  facet normal 0 0 1
    outer loop
      vertex 23.5 5 3
      vertex 23.5 9 3
      vertex -23.5 9 3
    endloop
  endfacet
  facet normal 0 0 1
    outer loop
      vertex -23.5 5 3
      vertex 23.5 5 3
      vertex -23.5 9 3
    endloop
  endfacet
  facet normal -1 0 0
    outer loop
      vertex 23.5 9 24
      vertex 23.5 9 3
      vertex 23.5 5 24
    endloop
  endfacet
  facet normal -1 0 0
    outer loop
      vertex 23.5 5 24
      vertex 23.5 9 3
      vertex 23.5 5 3
    endloop
  endfacet
  facet normal 0 -1 0
    outer loop
      vertex 23.5 9 3
      vertex 23.5 9 24
      vertex 21.5 9 24
    endloop
  endfacet
  facet normal 0 -1 0
    outer loop
      vertex -21.5 9 4
      vertex 23.5 9 3
      vertex 21.5 9 4
    endloop
  endfacet
  facet normal 0 -1 0
    outer loop
      vertex 21.5 9 4
      vertex 23.5 9 3
      vertex 21.5 9 24
    endloop
  endfacet
  facet normal 0 -1 0
    outer loop
      vertex -23.5 9 3
      vertex 23.5 9 3
      vertex -21.5 9 4
    endloop
  endfacet
  facet normal 0 -1 0
    outer loop
      vertex -23.5 9 24
      vertex -21.5 9 4
      vertex -21.5 9 24
    endloop
  endfacet
  facet normal 0 -1 0
    outer loop
      vertex -23.5 9 3
      vertex -21.5 9 4
      vertex -23.5 9 24
    endloop
  endfacet
  facet normal -1 0 0
    outer loop
      vertex 21.5 9 4
      vertex 21.5 9 24
      vertex 21.5 10 4
    endloop
  endfacet
  facet normal -1 0 0
    outer loop
      vertex 21.5 10 4
      vertex 21.5 9 24
      vertex 21.5 10 24
    endloop
  endfacet
  facet normal 0 -1 0
    outer loop
      vertex -21.5 10 24
      vertex -21.5 10 4
      vertex 21.5 10 4
    endloop
  endfacet
  facet normal 0 -1 0
    outer loop
      vertex 21.5 10 24
      vertex -21.5 10 24
      vertex 21.5 10 4
    endloop
  endfacet
  facet normal 1 0 0
    outer loop
      vertex -21.5 9 24
      vertex -21.5 9 4
      vertex -21.5 10 4
    endloop
  endfacet
  facet normal 1 0 0
    outer loop
      vertex -21.5 10 24
      vertex -21.5 9 24
      vertex -21.5 10 4
    endloop
  endfacet
  facet normal 0 0 1
    outer loop
      vertex -21.5 10 4
      vertex -21.5 9 4
      vertex 21.5 9 4
    endloop
  endfacet
  facet normal 0 0 1
    outer loop
      vertex 21.5 10 4
      vertex -21.5 10 4
      vertex 21.5 9 4
    endloop
  endfacet
endsolid OpenSCAD_Model
