solid OpenSCAD_Model
  facet normal -1 0 0
    outer loop
      vertex -49.4 -12 0
      vertex -49.4 -12 17
      vertex -49.4 12 0
    endloop
  endfacet
  facet normal -1 0 0
    outer loop
      vertex -49.4 12 0
      vertex -49.4 -12 17
      vertex -49.4 12 17
    endloop
  endfacet
  facet normal 0 -1 0
    outer loop
      vertex -49.4 -12 17
      vertex -49.4 -12 0
      vertex -10.4 -12 0
    endloop
  endfacet
  facet normal 0 -1 0
    outer loop
      vertex -10.4 -12 17
      vertex -49.4 -12 17
      vertex -10.4 -12 0
    endloop
  endfacet
  facet normal 0 0 -1
    outer loop
      vertex -49.4 -12 0
      vertex -49.4 12 0
      vertex -10.4 -12 0
    endloop
  endfacet
  facet normal 0 0 -1
    outer loop
      vertex -10.4 11.5697 0
      vertex -49.4 12 0
      vertex -10.4 12 0
    endloop
  endfacet
  facet normal 0 0 -1
    outer loop
      vertex -10.4 -12 0
      vertex -49.4 12 0
      vertex -10.4 -11.5697 0
    endloop
  endfacet
  facet normal 0 0 -1
    outer loop
      vertex -3.80423 -1.23607 0
      vertex -10.4 -11.5697 0
      vertex -3.95075 -0.625738 0
    endloop
  endfacet
  facet normal 0 0 -1
    outer loop
      vertex -2.35114 3.23607 0
      vertex 2.44038 15.4079 0
      vertex 4.82066 14.8365 0
    endloop
  endfacet
  facet normal 0 0 -1
    outer loop
      vertex -0.625738 3.95075 0
      vertex 4.82066 14.8365 0
      vertex 7.08225 13.8997 0
    endloop
  endfacet
  facet normal 0 0 -1
    outer loop
      vertex 1.23607 3.80423 0
      vertex 7.08225 13.8997 0
      vertex 9.16945 12.6207 0
    endloop
  endfacet
  facet normal 0 0 -1
    outer loop
      vertex 2.35114 3.23607 0
      vertex 9.16945 12.6207 0
      vertex 2.82843 2.82843 0
    endloop
  endfacet
  facet normal 0 0 -1
    outer loop
      vertex 3.23607 2.35114 0
      vertex 11.0309 11.0309 0
      vertex 11.4843 10.5 0
    endloop
  endfacet
  facet normal 0 0 -1
    outer loop
      vertex 3.56403 -1.81596 0
      vertex 11.4843 10.5 0
      vertex 41.5 10.5 0
    endloop
  endfacet
  facet normal 0 0 -1
    outer loop
      vertex 11.4843 -10.5 0
      vertex 41.5 10.5 0
      vertex 41.5 -10.5 0
    endloop
  endfacet
  facet normal 0 0 -1
    outer loop
      vertex -4.82066 -14.8365 0
      vertex 2.44038 -15.4079 0
      vertex -2.44038 -15.4079 0
    endloop
  endfacet
  facet normal 0 0 -1
    outer loop
      vertex -10.4 -11.5697 0
      vertex -9.16945 12.6207 0
      vertex -7.08225 13.8997 0
    endloop
  endfacet
  facet normal 0 0 -1
    outer loop
      vertex -9.16945 -12.6207 0
      vertex 7.08225 -13.8997 0
      vertex -7.08225 -13.8997 0
    endloop
  endfacet
  facet normal 0 0 -1
    outer loop
      vertex -7.08225 -13.8997 0
      vertex 4.82066 -14.8365 0
      vertex -4.82066 -14.8365 0
    endloop
  endfacet
  facet normal 0 0 -1
    outer loop
      vertex 2.44038 -15.4079 0
      vertex 0 -15.6 0
      vertex -2.44038 -15.4079 0
    endloop
  endfacet
  facet normal 0 0 -1
    outer loop
      vertex 4.82066 -14.8365 0
      vertex 2.44038 -15.4079 0
      vertex -4.82066 -14.8365 0
    endloop
  endfacet
  facet normal 0 0 -1
    outer loop
      vertex 7.08225 -13.8997 0
      vertex 4.82066 -14.8365 0
      vertex -7.08225 -13.8997 0
    endloop
  endfacet
  facet normal 0 0 -1
    outer loop
      vertex -10.4 -11.5697 0
      vertex -7.08225 13.8997 0
      vertex -4.82066 14.8365 0
    endloop
  endfacet
  facet normal 0 0 -1
    outer loop
      vertex 9.16945 -12.6207 0
      vertex 7.08225 -13.8997 0
      vertex -9.16945 -12.6207 0
    endloop
  endfacet
  facet normal 0 0 -1
    outer loop
      vertex -10.4 11.5697 0
      vertex -9.16945 12.6207 0
      vertex -10.4 -11.5697 0
    endloop
  endfacet
  facet normal 0 0 -1
    outer loop
      vertex -10.4 11.5697 0
      vertex -10.4 -11.5697 0
      vertex -49.4 12 0
    endloop
  endfacet
  facet normal 0 0 -1
    outer loop
      vertex -3.95075 0.625738 0
      vertex -10.4 -11.5697 0
      vertex -3.80423 1.23607 0
    endloop
  endfacet
  facet normal 0 0 -1
    outer loop
      vertex -1.81596 3.56403 0
      vertex 4.82066 14.8365 0
      vertex -1.23607 3.80423 0
    endloop
  endfacet
  facet normal 0 0 -1
    outer loop
      vertex 0 4 0
      vertex 7.08225 13.8997 0
      vertex 0.625738 3.95075 0
    endloop
  endfacet
  facet normal 0 0 -1
    outer loop
      vertex 2.82843 2.82843 0
      vertex 9.16945 12.6207 0
      vertex 11.0309 11.0309 0
    endloop
  endfacet
  facet normal 0 0 -1
    outer loop
      vertex 1.23607 -3.80423 0
      vertex 1.81596 -3.56403 0
      vertex 41.5 10.5 0
    endloop
  endfacet
  facet normal 0 0 -1
    outer loop
      vertex 2.82843 -2.82843 0
      vertex 41.5 10.5 0
      vertex 2.35114 -3.23607 0
    endloop
  endfacet
  facet normal 0 0 -1
    outer loop
      vertex 3.23607 -2.35114 0
      vertex 41.5 10.5 0
      vertex 2.82843 -2.82843 0
    endloop
  endfacet
  facet normal 0 0 -1
    outer loop
      vertex 3.56403 -1.81596 0
      vertex 41.5 10.5 0
      vertex 3.23607 -2.35114 0
    endloop
  endfacet
  facet normal 0 0 -1
    outer loop
      vertex 3.80423 -1.23607 0
      vertex 11.4843 10.5 0
      vertex 3.56403 -1.81596 0
    endloop
  endfacet
  facet normal 0 0 -1
    outer loop
      vertex 3.23607 2.35114 0
      vertex 11.4843 10.5 0
      vertex 3.56403 1.81596 0
    endloop
  endfacet
  facet normal 0 0 -1
    outer loop
      vertex 3.95075 -0.625738 0
      vertex 11.4843 10.5 0
      vertex 3.80423 -1.23607 0
    endloop
  endfacet
  facet normal 0 0 -1
    outer loop
      vertex 4 0 0
      vertex 11.4843 10.5 0
      vertex 3.95075 -0.625738 0
    endloop
  endfacet
  facet normal 0 0 -1
    outer loop
      vertex 3.95075 0.625738 0
      vertex 11.4843 10.5 0
      vertex 4 0 0
    endloop
  endfacet
  facet normal 0 0 -1
    outer loop
      vertex 3.80423 1.23607 0
      vertex 11.4843 10.5 0
      vertex 3.95075 0.625738 0
    endloop
  endfacet
  facet normal 0 0 -1
    outer loop
      vertex 3.56403 1.81596 0
      vertex 11.4843 10.5 0
      vertex 3.80423 1.23607 0
    endloop
  endfacet
  facet normal 0 0 -1
    outer loop
      vertex 1.81596 3.56403 0
      vertex 9.16945 12.6207 0
      vertex 2.35114 3.23607 0
    endloop
  endfacet
  facet normal 0 0 -1
    outer loop
      vertex 0.625738 3.95075 0
      vertex 7.08225 13.8997 0
      vertex 1.23607 3.80423 0
    endloop
  endfacet
  facet normal 0 0 -1
    outer loop
      vertex -0.625738 3.95075 0
      vertex 7.08225 13.8997 0
      vertex 0 4 0
    endloop
  endfacet
  facet normal 0 0 -1
    outer loop
      vertex -1.23607 3.80423 0
      vertex 4.82066 14.8365 0
      vertex -0.625738 3.95075 0
    endloop
  endfacet
  facet normal 0 0 -1
    outer loop
      vertex -2.35114 3.23607 0
      vertex 4.82066 14.8365 0
      vertex -1.81596 3.56403 0
    endloop
  endfacet
  facet normal 0 0 -1
    outer loop
      vertex -2.82843 2.82843 0
      vertex 2.44038 15.4079 0
      vertex -2.35114 3.23607 0
    endloop
  endfacet
  facet normal 0 0 -1
    outer loop
      vertex -3.23607 2.35114 0
      vertex 2.44038 15.4079 0
      vertex -2.82843 2.82843 0
    endloop
  endfacet
  facet normal 0 0 -1
    outer loop
      vertex -3.56403 1.81596 0
      vertex 2.44038 15.4079 0
      vertex -3.23607 2.35114 0
    endloop
  endfacet
  facet normal 0 0 -1
    outer loop
      vertex -10.4 -11.5697 0
      vertex -4.82066 14.8365 0
      vertex -2.44038 15.4079 0
    endloop
  endfacet
  facet normal 0 0 -1
    outer loop
      vertex -10.4 -11.5697 0
      vertex -2.44038 15.4079 0
      vertex 0 15.6 0
    endloop
  endfacet
  facet normal 0 0 -1
    outer loop
      vertex -10.4 -11.5697 0
      vertex 0 15.6 0
      vertex 2.44038 15.4079 0
    endloop
  endfacet
  facet normal 0 0 -1
    outer loop
      vertex -10.4 -11.5697 0
      vertex 2.44038 15.4079 0
      vertex -3.56403 1.81596 0
    endloop
  endfacet
  facet normal 0 0 -1
    outer loop
      vertex -10.4 -11.5697 0
      vertex -3.56403 1.81596 0
      vertex -3.80423 1.23607 0
    endloop
  endfacet
  facet normal 0 0 -1
    outer loop
      vertex -10.4 -11.5697 0
      vertex -3.95075 0.625738 0
      vertex -4 0 0
    endloop
  endfacet
  facet normal 0 0 -1
    outer loop
      vertex -10.4 -11.5697 0
      vertex -4 0 0
      vertex -3.95075 -0.625738 0
    endloop
  endfacet
  facet normal 0 0 -1
    outer loop
      vertex -3.23607 -2.35114 0
      vertex -10.4 -11.5697 0
      vertex -3.56403 -1.81596 0
    endloop
  endfacet
  facet normal 0 0 -1
    outer loop
      vertex -10.4 -11.5697 0
      vertex -3.80423 -1.23607 0
      vertex -3.56403 -1.81596 0
    endloop
  endfacet
  facet normal 0 0 -1
    outer loop
      vertex 1.23607 3.80423 0
      vertex 9.16945 12.6207 0
      vertex 1.81596 3.56403 0
    endloop
  endfacet
  facet normal 0 0 -1
    outer loop
      vertex -2.82843 -2.82843 0
      vertex -10.4 -11.5697 0
      vertex -3.23607 -2.35114 0
    endloop
  endfacet
  facet normal 0 0 -1
    outer loop
      vertex 2.82843 2.82843 0
      vertex 11.0309 11.0309 0
      vertex 3.23607 2.35114 0
    endloop
  endfacet
  facet normal 0 0 -1
    outer loop
      vertex -1.81596 -3.56403 0
      vertex -10.4 -11.5697 0
      vertex -2.35114 -3.23607 0
    endloop
  endfacet
  facet normal 0 0 -1
    outer loop
      vertex -10.4 -11.5697 0
      vertex -2.82843 -2.82843 0
      vertex -2.35114 -3.23607 0
    endloop
  endfacet
  facet normal 0 0 -1
    outer loop
      vertex 2.35114 -3.23607 0
      vertex 41.5 10.5 0
      vertex 1.81596 -3.56403 0
    endloop
  endfacet
  facet normal 0 0 -1
    outer loop
      vertex -10.4 -11.5697 0
      vertex -1.81596 -3.56403 0
      vertex -1.23607 -3.80423 0
    endloop
  endfacet
  facet normal 0 0 -1
    outer loop
      vertex -10.4 -11.5697 0
      vertex -1.23607 -3.80423 0
      vertex -0.625738 -3.95075 0
    endloop
  endfacet
  facet normal 0 0 -1
    outer loop
      vertex -10.4 -11.5697 0
      vertex -0.625738 -3.95075 0
      vertex 0 -4 0
    endloop
  endfacet
  facet normal 0 0 -1
    outer loop
      vertex -10.4 -11.5697 0
      vertex 0 -4 0
      vertex 0.625738 -3.95075 0
    endloop
  endfacet
  facet normal 0 0 -1
    outer loop
      vertex -10.4 -11.5697 0
      vertex 0.625738 -3.95075 0
      vertex 1.23607 -3.80423 0
    endloop
  endfacet
  facet normal 0 0 -1
    outer loop
      vertex -10.4 -11.5697 0
      vertex 1.23607 -3.80423 0
      vertex 41.5 10.5 0
    endloop
  endfacet
  facet normal 0 0 -1
    outer loop
      vertex -10.4 -11.5697 0
      vertex 41.5 10.5 0
      vertex 11.4843 -10.5 0
    endloop
  endfacet
  facet normal 0 0 -1
    outer loop
      vertex -10.4 -11.5697 0
      vertex 11.4843 -10.5 0
      vertex 11.0309 -11.0309 0
    endloop
  endfacet
  facet normal 0 0 -1
    outer loop
      vertex -10.4 -11.5697 0
      vertex 11.0309 -11.0309 0
      vertex 9.16945 -12.6207 0
    endloop
  endfacet
  facet normal 0 0 -1
    outer loop
      vertex -10.4 -11.5697 0
      vertex 9.16945 -12.6207 0
      vertex -9.16945 -12.6207 0
    endloop
  endfacet
  facet normal 0 1 0
    outer loop
      vertex -49.4 12 0
      vertex -49.4 12 17
      vertex -10.4 12 0
    endloop
  endfacet
  facet normal 0 1 0
    outer loop
      vertex -10.4 12 0
      vertex -49.4 12 17
      vertex -10.4 12 17
    endloop
  endfacet
  facet normal 0 0 1
    outer loop
      vertex -47.4 -10 17
      vertex -49.4 -12 17
      vertex -10.4 -12 17
    endloop
  endfacet
  facet normal 0 0 1
    outer loop
      vertex -12.4 10 17
      vertex -4 0 17
      vertex -3.95075 0.625738 17
    endloop
  endfacet
  facet normal 0 0 1
    outer loop
      vertex -12.4 10 17
      vertex -3.95075 0.625738 17
      vertex -3.80423 1.23607 17
    endloop
  endfacet
  facet normal 0 0 1
    outer loop
      vertex -7.08225 -13.8997 17
      vertex -10.4 -11.5697 17
      vertex -9.16945 -12.6207 17
    endloop
  endfacet
  facet normal 0 0 1
    outer loop
      vertex -7.08225 -13.8997 17
      vertex -4.82066 -14.8365 17
      vertex -10.4 -11.5697 17
    endloop
  endfacet
  facet normal 0 0 1
    outer loop
      vertex -2.44038 15.4079 17
      vertex -4.82066 14.8365 17
      vertex 2.44038 15.4079 17
    endloop
  endfacet
  facet normal 0 0 1
    outer loop
      vertex -12.4 10 17
      vertex 11.4843 10.5 17
      vertex -49.4 12 17
    endloop
  endfacet
  facet normal 0 0 1
    outer loop
      vertex 37.5 6.5 17
      vertex 41.5 10.5 17
      vertex 11.4843 10.5 17
    endloop
  endfacet
  facet normal 0 0 1
    outer loop
      vertex -4.82066 14.8365 17
      vertex -7.08225 13.8997 17
      vertex 4.82066 14.8365 17
    endloop
  endfacet
  facet normal 0 0 1
    outer loop
      vertex 2.44038 15.4079 17
      vertex 0 15.6 17
      vertex -2.44038 15.4079 17
    endloop
  endfacet
  facet normal 0 0 1
    outer loop
      vertex -7.08225 13.8997 17
      vertex -9.16945 12.6207 17
      vertex 7.08225 13.8997 17
    endloop
  endfacet
  facet normal 0 0 1
    outer loop
      vertex 4.82066 14.8365 17
      vertex 2.44038 15.4079 17
      vertex -4.82066 14.8365 17
    endloop
  endfacet
  facet normal 0 0 1
    outer loop
      vertex 7.08225 13.8997 17
      vertex 4.82066 14.8365 17
      vertex -7.08225 13.8997 17
    endloop
  endfacet
  facet normal 0 0 1
    outer loop
      vertex -12.4 -10 17
      vertex -10.4 -11.5697 17
      vertex -4.82066 -14.8365 17
    endloop
  endfacet
  facet normal 0 0 1
    outer loop
      vertex 9.16945 12.6207 17
      vertex 7.08225 13.8997 17
      vertex -9.16945 12.6207 17
    endloop
  endfacet
  facet normal 0 0 1
    outer loop
      vertex 11.0309 11.0309 17
      vertex -10.4 11.5697 17
      vertex -49.4 12 17
    endloop
  endfacet
  facet normal 0 0 1
    outer loop
      vertex 11.0309 11.0309 17
      vertex 9.16945 12.6207 17
      vertex -10.4 11.5697 17
    endloop
  endfacet
  facet normal 0 0 1
    outer loop
      vertex -10.4 11.5697 17
      vertex -10.4 12 17
      vertex -49.4 12 17
    endloop
  endfacet
  facet normal 0 0 1
    outer loop
      vertex -49.4 12 17
      vertex -49.4 -12 17
      vertex -47.4 -10 17
    endloop
  endfacet
  facet normal 0 0 1
    outer loop
      vertex -49.4 12 17
      vertex -47.4 -10 17
      vertex -47.4 10 17
    endloop
  endfacet
  facet normal 0 0 1
    outer loop
      vertex 14.5 6.5 17
      vertex 11.4843 10.5 17
      vertex -12.4 10 17
    endloop
  endfacet
  facet normal 0 0 1
    outer loop
      vertex -12.4 10 17
      vertex -3.95075 -0.625738 17
      vertex -4 0 17
    endloop
  endfacet
  facet normal 0 0 1
    outer loop
      vertex -4.82066 -14.8365 17
      vertex -2.44038 -15.4079 17
      vertex -12.4 -10 17
    endloop
  endfacet
  facet normal 0 0 1
    outer loop
      vertex 14.5 -6.5 17
      vertex 3.56403 1.81596 17
      vertex 3.80423 1.23607 17
    endloop
  endfacet
  facet normal 0 0 1
    outer loop
      vertex 14.5 -6.5 17
      vertex 3.80423 1.23607 17
      vertex 3.95075 0.625738 17
    endloop
  endfacet
  facet normal 0 0 1
    outer loop
      vertex 14.5 -6.5 17
      vertex 3.95075 0.625738 17
      vertex 4 0 17
    endloop
  endfacet
  facet normal 0 0 1
    outer loop
      vertex 14.5 6.5 17
      vertex 37.5 6.5 17
      vertex 11.4843 10.5 17
    endloop
  endfacet
  facet normal 0 0 1
    outer loop
      vertex -3.56403 1.81596 17
      vertex -12.4 10 17
      vertex -3.80423 1.23607 17
    endloop
  endfacet
  facet normal 0 0 1
    outer loop
      vertex -3.23607 2.35114 17
      vertex -12.4 10 17
      vertex -3.56403 1.81596 17
    endloop
  endfacet
  facet normal 0 0 1
    outer loop
      vertex -2.82843 2.82843 17
      vertex -12.4 10 17
      vertex -3.23607 2.35114 17
    endloop
  endfacet
  facet normal 0 0 1
    outer loop
      vertex -2.35114 3.23607 17
      vertex -12.4 10 17
      vertex -2.82843 2.82843 17
    endloop
  endfacet
  facet normal 0 0 1
    outer loop
      vertex -1.81596 3.56403 17
      vertex -12.4 10 17
      vertex -2.35114 3.23607 17
    endloop
  endfacet
  facet normal 0 0 1
    outer loop
      vertex -1.23607 3.80423 17
      vertex -12.4 10 17
      vertex -1.81596 3.56403 17
    endloop
  endfacet
  facet normal 0 0 1
    outer loop
      vertex -0.625738 3.95075 17
      vertex -12.4 10 17
      vertex -1.23607 3.80423 17
    endloop
  endfacet
  facet normal 0 0 1
    outer loop
      vertex 0 4 17
      vertex -12.4 10 17
      vertex -0.625738 3.95075 17
    endloop
  endfacet
  facet normal 0 0 1
    outer loop
      vertex 0.625738 3.95075 17
      vertex -12.4 10 17
      vertex 0 4 17
    endloop
  endfacet
  facet normal 0 0 1
    outer loop
      vertex 1.23607 3.80423 17
      vertex -12.4 10 17
      vertex 0.625738 3.95075 17
    endloop
  endfacet
  facet normal 0 0 1
    outer loop
      vertex 14.5 -6.5 17
      vertex 4 0 17
      vertex 3.95075 -0.625738 17
    endloop
  endfacet
  facet normal 0 0 1
    outer loop
      vertex 14.5 -6.5 17
      vertex 3.95075 -0.625738 17
      vertex 3.80423 -1.23607 17
    endloop
  endfacet
  facet normal 0 0 1
    outer loop
      vertex 1.23607 -3.80423 17
      vertex 0.625738 -3.95075 17
      vertex 11.4843 -10.5 17
    endloop
  endfacet
  facet normal 0 0 1
    outer loop
      vertex 11.4843 -10.5 17
      vertex 3.23607 -2.35114 17
      vertex 2.82843 -2.82843 17
    endloop
  endfacet
  facet normal 0 0 1
    outer loop
      vertex 11.4843 -10.5 17
      vertex 2.82843 -2.82843 17
      vertex 2.35114 -3.23607 17
    endloop
  endfacet
  facet normal 0 0 1
    outer loop
      vertex 11.4843 -10.5 17
      vertex 2.35114 -3.23607 17
      vertex 1.81596 -3.56403 17
    endloop
  endfacet
  facet normal 0 0 1
    outer loop
      vertex 14.5 -6.5 17
      vertex 3.80423 -1.23607 17
      vertex 3.56403 -1.81596 17
    endloop
  endfacet
  facet normal 0 0 1
    outer loop
      vertex 11.4843 -10.5 17
      vertex 1.81596 -3.56403 17
      vertex 1.23607 -3.80423 17
    endloop
  endfacet
  facet normal 0 0 1
    outer loop
      vertex 1.81596 3.56403 17
      vertex 14.5 6.5 17
      vertex -12.4 10 17
    endloop
  endfacet
  facet normal 0 0 1
    outer loop
      vertex 14.5 -6.5 17
      vertex 3.56403 -1.81596 17
      vertex 3.23607 -2.35114 17
    endloop
  endfacet
  facet normal 0 0 1
    outer loop
      vertex 14.5 -6.5 17
      vertex 14.5 6.5 17
      vertex 2.35114 3.23607 17
    endloop
  endfacet
  facet normal 0 0 1
    outer loop
      vertex 11.4843 -10.5 17
      vertex 0.625738 -3.95075 17
      vertex 0 -4 17
    endloop
  endfacet
  facet normal 0 0 1
    outer loop
      vertex 11.4843 -10.5 17
      vertex 0 -4 17
      vertex -0.625738 -3.95075 17
    endloop
  endfacet
  facet normal 0 0 1
    outer loop
      vertex 37.5 -6.5 17
      vertex 14.5 -6.5 17
      vertex 41.5 -10.5 17
    endloop
  endfacet
  facet normal 0 0 1
    outer loop
      vertex 11.4843 -10.5 17
      vertex -0.625738 -3.95075 17
      vertex -1.23607 -3.80423 17
    endloop
  endfacet
  facet normal 0 0 1
    outer loop
      vertex 2.35114 3.23607 17
      vertex 14.5 6.5 17
      vertex 1.81596 3.56403 17
    endloop
  endfacet
  facet normal 0 0 1
    outer loop
      vertex 1.81596 3.56403 17
      vertex -12.4 10 17
      vertex 1.23607 3.80423 17
    endloop
  endfacet
  facet normal 0 0 1
    outer loop
      vertex 14.5 -6.5 17
      vertex 2.35114 3.23607 17
      vertex 2.82843 2.82843 17
    endloop
  endfacet
  facet normal 0 0 1
    outer loop
      vertex 14.5 -6.5 17
      vertex 2.82843 2.82843 17
      vertex 3.23607 2.35114 17
    endloop
  endfacet
  facet normal 0 0 1
    outer loop
      vertex 14.5 -6.5 17
      vertex 3.23607 2.35114 17
      vertex 3.56403 1.81596 17
    endloop
  endfacet
  facet normal 0 0 1
    outer loop
      vertex 11.4843 -10.5 17
      vertex 14.5 -6.5 17
      vertex 3.23607 -2.35114 17
    endloop
  endfacet
  facet normal 0 0 1
    outer loop
      vertex 11.4843 -10.5 17
      vertex 41.5 -10.5 17
      vertex 14.5 -6.5 17
    endloop
  endfacet
  facet normal 0 0 1
    outer loop
      vertex 41.5 -10.5 17
      vertex 41.5 10.5 17
      vertex 37.5 6.5 17
    endloop
  endfacet
  facet normal 0 0 1
    outer loop
      vertex 41.5 -10.5 17
      vertex 37.5 6.5 17
      vertex 37.5 -6.5 17
    endloop
  endfacet
  facet normal 0 0 1
    outer loop
      vertex 11.4843 10.5 17
      vertex 11.0309 11.0309 17
      vertex -49.4 12 17
    endloop
  endfacet
  facet normal 0 0 1
    outer loop
      vertex -9.16945 12.6207 17
      vertex -10.4 11.5697 17
      vertex 9.16945 12.6207 17
    endloop
  endfacet
  facet normal 0 0 1
    outer loop
      vertex -12.4 -10 17
      vertex -10.4 -12 17
      vertex -10.4 -11.5697 17
    endloop
  endfacet
  facet normal 0 0 1
    outer loop
      vertex -12.4 -10 17
      vertex -47.4 -10 17
      vertex -10.4 -12 17
    endloop
  endfacet
  facet normal 0 0 1
    outer loop
      vertex -12.4 10 17
      vertex -3.80423 -1.23607 17
      vertex -3.95075 -0.625738 17
    endloop
  endfacet
  facet normal 0 0 1
    outer loop
      vertex -12.4 10 17
      vertex -3.56403 -1.81596 17
      vertex -3.80423 -1.23607 17
    endloop
  endfacet
  facet normal 0 0 1
    outer loop
      vertex -12.4 10 17
      vertex -3.23607 -2.35114 17
      vertex -3.56403 -1.81596 17
    endloop
  endfacet
  facet normal 0 0 1
    outer loop
      vertex -1.81596 -3.56403 17
      vertex 11.4843 -10.5 17
      vertex -1.23607 -3.80423 17
    endloop
  endfacet
  facet normal 0 0 1
    outer loop
      vertex -1.81596 -3.56403 17
      vertex 11.0309 -11.0309 17
      vertex 11.4843 -10.5 17
    endloop
  endfacet
  facet normal 0 0 1
    outer loop
      vertex -1.81596 -3.56403 17
      vertex 9.16945 -12.6207 17
      vertex 11.0309 -11.0309 17
    endloop
  endfacet
  facet normal 0 0 1
    outer loop
      vertex -2.35114 -3.23607 17
      vertex 9.16945 -12.6207 17
      vertex -1.81596 -3.56403 17
    endloop
  endfacet
  facet normal 0 0 1
    outer loop
      vertex -2.35114 -3.23607 17
      vertex 7.08225 -13.8997 17
      vertex 9.16945 -12.6207 17
    endloop
  endfacet
  facet normal 0 0 1
    outer loop
      vertex -2.82843 -2.82843 17
      vertex 7.08225 -13.8997 17
      vertex -2.35114 -3.23607 17
    endloop
  endfacet
  facet normal 0 0 1
    outer loop
      vertex -2.82843 -2.82843 17
      vertex 4.82066 -14.8365 17
      vertex 7.08225 -13.8997 17
    endloop
  endfacet
  facet normal 0 0 1
    outer loop
      vertex -3.23607 -2.35114 17
      vertex 4.82066 -14.8365 17
      vertex -2.82843 -2.82843 17
    endloop
  endfacet
  facet normal 0 0 1
    outer loop
      vertex -12.4 10 17
      vertex 4.82066 -14.8365 17
      vertex -3.23607 -2.35114 17
    endloop
  endfacet
  facet normal 0 0 1
    outer loop
      vertex -12.4 10 17
      vertex 2.44038 -15.4079 17
      vertex 4.82066 -14.8365 17
    endloop
  endfacet
  facet normal 0 0 1
    outer loop
      vertex -12.4 10 17
      vertex 0 -15.6 17
      vertex 2.44038 -15.4079 17
    endloop
  endfacet
  facet normal 0 0 1
    outer loop
      vertex -12.4 10 17
      vertex -2.44038 -15.4079 17
      vertex 0 -15.6 17
    endloop
  endfacet
  facet normal 0 0 1
    outer loop
      vertex -12.4 10 17
      vertex -12.4 -10 17
      vertex -2.44038 -15.4079 17
    endloop
  endfacet
  facet normal 0 0 1
    outer loop
      vertex -47.4 10 17
      vertex -12.4 10 17
      vertex -49.4 12 17
    endloop
  endfacet
  facet normal 1 0 0
    outer loop
      vertex -10.4 -12 17
      vertex -10.4 -12 0
      vertex -10.4 -11.5697 0
    endloop
  endfacet
  facet normal 1 0 0
    outer loop
      vertex -10.4 -11.5697 17
      vertex -10.4 -12 17
      vertex -10.4 -11.5697 0
    endloop
  endfacet
  facet normal -0.649448 -0.760406 0
    outer loop
      vertex -10.4 -11.5697 17
      vertex -10.4 -11.5697 0
      vertex -9.16945 -12.6207 0
    endloop
  endfacet
  facet normal -0.649448 -0.760406 0
    outer loop
      vertex -9.16945 -12.6207 17
      vertex -10.4 -11.5697 17
      vertex -9.16945 -12.6207 0
    endloop
  endfacet
  facet normal -0.522499 -0.85264 0
    outer loop
      vertex -9.16945 -12.6207 17
      vertex -9.16945 -12.6207 0
      vertex -7.08225 -13.8997 0
    endloop
  endfacet
  facet normal -0.522499 -0.85264 0
    outer loop
      vertex -7.08225 -13.8997 17
      vertex -9.16945 -12.6207 17
      vertex -7.08225 -13.8997 0
    endloop
  endfacet
  facet normal -0.382683 -0.92388 0
    outer loop
      vertex -7.08225 -13.8997 17
      vertex -7.08225 -13.8997 0
      vertex -4.82066 -14.8365 0
    endloop
  endfacet
  facet normal -0.382683 -0.92388 0
    outer loop
      vertex -4.82066 -14.8365 17
      vertex -7.08225 -13.8997 17
      vertex -4.82066 -14.8365 0
    endloop
  endfacet
  facet normal -0.233445 -0.97237 0
    outer loop
      vertex -4.82066 -14.8365 17
      vertex -4.82066 -14.8365 0
      vertex -2.44038 -15.4079 0
    endloop
  endfacet
  facet normal -0.233445 -0.97237 0
    outer loop
      vertex -2.44038 -15.4079 17
      vertex -4.82066 -14.8365 17
      vertex -2.44038 -15.4079 0
    endloop
  endfacet
  facet normal -0.0784591 -0.996917 0
    outer loop
      vertex -2.44038 -15.4079 17
      vertex -2.44038 -15.4079 0
      vertex 0 -15.6 0
    endloop
  endfacet
  facet normal -0.0784591 -0.996917 0
    outer loop
      vertex 0 -15.6 17
      vertex -2.44038 -15.4079 17
      vertex 0 -15.6 0
    endloop
  endfacet
  facet normal 0.0784591 -0.996917 0
    outer loop
      vertex 0 -15.6 17
      vertex 0 -15.6 0
      vertex 2.44038 -15.4079 0
    endloop
  endfacet
  facet normal 0.0784591 -0.996917 0
    outer loop
      vertex 2.44038 -15.4079 17
      vertex 0 -15.6 17
      vertex 2.44038 -15.4079 0
    endloop
  endfacet
  facet normal 0.233445 -0.97237 0
    outer loop
      vertex 2.44038 -15.4079 17
      vertex 2.44038 -15.4079 0
      vertex 4.82066 -14.8365 0
    endloop
  endfacet
  facet normal 0.233445 -0.97237 0
    outer loop
      vertex 4.82066 -14.8365 17
      vertex 2.44038 -15.4079 17
      vertex 4.82066 -14.8365 0
    endloop
  endfacet
  facet normal 0.382683 -0.92388 0
    outer loop
      vertex 4.82066 -14.8365 17
      vertex 4.82066 -14.8365 0
      vertex 7.08225 -13.8997 0
    endloop
  endfacet
  facet normal 0.382683 -0.92388 0
    outer loop
      vertex 7.08225 -13.8997 17
      vertex 4.82066 -14.8365 17
      vertex 7.08225 -13.8997 0
    endloop
  endfacet
  facet normal 0.522499 -0.85264 0
    outer loop
      vertex 7.08225 -13.8997 17
      vertex 7.08225 -13.8997 0
      vertex 9.16945 -12.6207 0
    endloop
  endfacet
  facet normal 0.522499 -0.85264 0
    outer loop
      vertex 9.16945 -12.6207 17
      vertex 7.08225 -13.8997 17
      vertex 9.16945 -12.6207 0
    endloop
  endfacet
  facet normal 0.649448 -0.760406 0
    outer loop
      vertex 9.16945 -12.6207 17
      vertex 9.16945 -12.6207 0
      vertex 11.0309 -11.0309 0
    endloop
  endfacet
  facet normal 0.649448 -0.760406 0
    outer loop
      vertex 11.0309 -11.0309 17
      vertex 9.16945 -12.6207 17
      vertex 11.0309 -11.0309 0
    endloop
  endfacet
  facet normal 0.760406 -0.649448 0
    outer loop
      vertex 11.0309 -11.0309 17
      vertex 11.0309 -11.0309 0
      vertex 11.4843 -10.5 0
    endloop
  endfacet
  facet normal 0.760406 -0.649448 0
    outer loop
      vertex 11.4843 -10.5 17
      vertex 11.0309 -11.0309 17
      vertex 11.4843 -10.5 0
    endloop
  endfacet
  facet normal 0 -1 0
    outer loop
      vertex 11.4843 -10.5 17
      vertex 11.4843 -10.5 0
      vertex 41.5 -10.5 0
    endloop
  endfacet
  facet normal 0 -1 0
    outer loop
      vertex 41.5 -10.5 17
      vertex 11.4843 -10.5 17
      vertex 41.5 -10.5 0
    endloop
  endfacet
  facet normal 1 0 0
    outer loop
      vertex 41.5 -6.5 3
      vertex 41.5 -10.5 0
      vertex 41.5 10.5 0
    endloop
  endfacet
  facet normal 1 0 0
    outer loop
      vertex 41.5 6.5 10.5
      vertex 41.5 6.5 3
      vertex 41.5 10.5 0
    endloop
  endfacet
  facet normal 1 0 0
    outer loop
      vertex 41.5 -10.5 17
      vertex 41.5 -10.5 0
      vertex 41.5 -6.5 3
    endloop
  endfacet
  facet normal 1 0 0
    outer loop
      vertex 41.5 -10.5 17
      vertex 41.5 -6.5 3
      vertex 41.5 -6.5 10.5
    endloop
  endfacet
  facet normal 1 0 0
    outer loop
      vertex 41.5 10.5 17
      vertex 41.5 6.5 10.5
      vertex 41.5 10.5 0
    endloop
  endfacet
  facet normal 1 0 0
    outer loop
      vertex 41.5 10.5 17
      vertex 41.5 -10.5 17
      vertex 41.5 6.5 10.5
    endloop
  endfacet
  facet normal 1 0 0
    outer loop
      vertex 41.5 6.5 3
      vertex 41.5 -6.5 3
      vertex 41.5 10.5 0
    endloop
  endfacet
  facet normal 1 0 0
    outer loop
      vertex 41.5 -6.5 10.5
      vertex 41.5 6.5 10.5
      vertex 41.5 -10.5 17
    endloop
  endfacet
  facet normal 0 1 0
    outer loop
      vertex 11.4843 10.5 0
      vertex 11.4843 10.5 17
      vertex 41.5 10.5 0
    endloop
  endfacet
  facet normal 0 1 0
    outer loop
      vertex 41.5 10.5 0
      vertex 11.4843 10.5 17
      vertex 41.5 10.5 17
    endloop
  endfacet
  facet normal 0.760406 0.649448 0
    outer loop
      vertex 11.4843 10.5 0
      vertex 11.0309 11.0309 0
      vertex 11.0309 11.0309 17
    endloop
  endfacet
  facet normal 0.760406 0.649448 0
    outer loop
      vertex 11.4843 10.5 17
      vertex 11.4843 10.5 0
      vertex 11.0309 11.0309 17
    endloop
  endfacet
  facet normal 0.649448 0.760406 0
    outer loop
      vertex 9.16945 12.6207 0
      vertex 9.16945 12.6207 17
      vertex 11.0309 11.0309 0
    endloop
  endfacet
  facet normal 0.649448 0.760406 0
    outer loop
      vertex 11.0309 11.0309 0
      vertex 9.16945 12.6207 17
      vertex 11.0309 11.0309 17
    endloop
  endfacet
  facet normal 0.522499 0.85264 0
    outer loop
      vertex 7.08225 13.8997 0
      vertex 7.08225 13.8997 17
      vertex 9.16945 12.6207 0
    endloop
  endfacet
  facet normal 0.522499 0.85264 0
    outer loop
      vertex 9.16945 12.6207 0
      vertex 7.08225 13.8997 17
      vertex 9.16945 12.6207 17
    endloop
  endfacet
  facet normal 0.382683 0.92388 0
    outer loop
      vertex 4.82066 14.8365 0
      vertex 4.82066 14.8365 17
      vertex 7.08225 13.8997 0
    endloop
  endfacet
  facet normal 0.382683 0.92388 0
    outer loop
      vertex 7.08225 13.8997 0
      vertex 4.82066 14.8365 17
      vertex 7.08225 13.8997 17
    endloop
  endfacet
  facet normal 0.233445 0.97237 0
    outer loop
      vertex 2.44038 15.4079 0
      vertex 2.44038 15.4079 17
      vertex 4.82066 14.8365 0
    endloop
  endfacet
  facet normal 0.233445 0.97237 0
    outer loop
      vertex 4.82066 14.8365 0
      vertex 2.44038 15.4079 17
      vertex 4.82066 14.8365 17
    endloop
  endfacet
  facet normal 0.0784591 0.996917 0
    outer loop
      vertex 0 15.6 0
      vertex 0 15.6 17
      vertex 2.44038 15.4079 0
    endloop
  endfacet
  facet normal 0.0784591 0.996917 0
    outer loop
      vertex 2.44038 15.4079 0
      vertex 0 15.6 17
      vertex 2.44038 15.4079 17
    endloop
  endfacet
  facet normal -0.0784591 0.996917 0
    outer loop
      vertex -2.44038 15.4079 0
      vertex -2.44038 15.4079 17
      vertex 0 15.6 0
    endloop
  endfacet
  facet normal -0.0784591 0.996917 0
    outer loop
      vertex 0 15.6 0
      vertex -2.44038 15.4079 17
      vertex 0 15.6 17
    endloop
  endfacet
  facet normal -0.233445 0.97237 0
    outer loop
      vertex -4.82066 14.8365 0
      vertex -4.82066 14.8365 17
      vertex -2.44038 15.4079 0
    endloop
  endfacet
  facet normal -0.233445 0.97237 0
    outer loop
      vertex -2.44038 15.4079 0
      vertex -4.82066 14.8365 17
      vertex -2.44038 15.4079 17
    endloop
  endfacet
  facet normal -0.382683 0.92388 0
    outer loop
      vertex -7.08225 13.8997 0
      vertex -7.08225 13.8997 17
      vertex -4.82066 14.8365 0
    endloop
  endfacet
  facet normal -0.382683 0.92388 0
    outer loop
      vertex -4.82066 14.8365 0
      vertex -7.08225 13.8997 17
      vertex -4.82066 14.8365 17
    endloop
  endfacet
  facet normal -0.522499 0.85264 0
    outer loop
      vertex -9.16945 12.6207 0
      vertex -9.16945 12.6207 17
      vertex -7.08225 13.8997 0
    endloop
  endfacet
  facet normal -0.522499 0.85264 0
    outer loop
      vertex -7.08225 13.8997 0
      vertex -9.16945 12.6207 17
      vertex -7.08225 13.8997 17
    endloop
  endfacet
  facet normal -0.649448 0.760406 0
    outer loop
      vertex -10.4 11.5697 0
      vertex -10.4 11.5697 17
      vertex -9.16945 12.6207 0
    endloop
  endfacet
  facet normal -0.649448 0.760406 0
    outer loop
      vertex -9.16945 12.6207 0
      vertex -10.4 11.5697 17
      vertex -9.16945 12.6207 17
    endloop
  endfacet
  facet normal 1 0 0
    outer loop
      vertex -10.4 11.5697 17
      vertex -10.4 11.5697 0
      vertex -10.4 12 0
    endloop
  endfacet
  facet normal 1 0 0
    outer loop
      vertex -10.4 12 17
      vertex -10.4 11.5697 17
      vertex -10.4 12 0
    endloop
  endfacet
  facet normal 0.996917 -0.0784597 0
    outer loop
      vertex -3.95075 0.625738 0
      vertex -3.95075 0.625738 17
      vertex -4 0 17
    endloop
  endfacet
  facet normal 0.996917 -0.0784597 0
    outer loop
      vertex -4 0 0
      vertex -3.95075 0.625738 0
      vertex -4 0 17
    endloop
  endfacet
  facet normal 0.996917 0.0784597 0
    outer loop
      vertex -4 0 17
      vertex -3.95075 -0.625738 17
      vertex -3.95075 -0.625738 0
    endloop
  endfacet
  facet normal 0.996917 0.0784597 0
    outer loop
      vertex -4 0 0
      vertex -4 0 17
      vertex -3.95075 -0.625738 0
    endloop
  endfacet
  facet normal 0.97237 -0.233445 0
    outer loop
      vertex -3.80423 1.23607 0
      vertex -3.80423 1.23607 17
      vertex -3.95075 0.625738 17
    endloop
  endfacet
  facet normal 0.97237 -0.233445 0
    outer loop
      vertex -3.95075 0.625738 0
      vertex -3.80423 1.23607 0
      vertex -3.95075 0.625738 17
    endloop
  endfacet
  facet normal 0.92388 -0.382683 0
    outer loop
      vertex -3.56403 1.81596 0
      vertex -3.56403 1.81596 17
      vertex -3.80423 1.23607 17
    endloop
  endfacet
  facet normal 0.92388 -0.382683 0
    outer loop
      vertex -3.80423 1.23607 0
      vertex -3.56403 1.81596 0
      vertex -3.80423 1.23607 17
    endloop
  endfacet
  facet normal 0.85264 -0.522498 0
    outer loop
      vertex -3.23607 2.35114 0
      vertex -3.23607 2.35114 17
      vertex -3.56403 1.81596 17
    endloop
  endfacet
  facet normal 0.85264 -0.522498 0
    outer loop
      vertex -3.56403 1.81596 0
      vertex -3.23607 2.35114 0
      vertex -3.56403 1.81596 17
    endloop
  endfacet
  facet normal 0.760406 -0.649448 0
    outer loop
      vertex -2.82843 2.82843 0
      vertex -2.82843 2.82843 17
      vertex -3.23607 2.35114 17
    endloop
  endfacet
  facet normal 0.760406 -0.649448 0
    outer loop
      vertex -3.23607 2.35114 0
      vertex -2.82843 2.82843 0
      vertex -3.23607 2.35114 17
    endloop
  endfacet
  facet normal 0.649448 -0.760406 0
    outer loop
      vertex -2.35114 3.23607 0
      vertex -2.35114 3.23607 17
      vertex -2.82843 2.82843 17
    endloop
  endfacet
  facet normal 0.649448 -0.760406 0
    outer loop
      vertex -2.82843 2.82843 0
      vertex -2.35114 3.23607 0
      vertex -2.82843 2.82843 17
    endloop
  endfacet
  facet normal 0.522498 -0.85264 0
    outer loop
      vertex -1.81596 3.56403 0
      vertex -1.81596 3.56403 17
      vertex -2.35114 3.23607 17
    endloop
  endfacet
  facet normal 0.522498 -0.85264 0
    outer loop
      vertex -2.35114 3.23607 0
      vertex -1.81596 3.56403 0
      vertex -2.35114 3.23607 17
    endloop
  endfacet
  facet normal 0.382683 -0.92388 0
    outer loop
      vertex -1.23607 3.80423 0
      vertex -1.23607 3.80423 17
      vertex -1.81596 3.56403 17
    endloop
  endfacet
  facet normal 0.382683 -0.92388 0
    outer loop
      vertex -1.81596 3.56403 0
      vertex -1.23607 3.80423 0
      vertex -1.81596 3.56403 17
    endloop
  endfacet
  facet normal 0.233445 -0.97237 0
    outer loop
      vertex -0.625738 3.95075 0
      vertex -0.625738 3.95075 17
      vertex -1.23607 3.80423 17
    endloop
  endfacet
  facet normal 0.233445 -0.97237 0
    outer loop
      vertex -1.23607 3.80423 0
      vertex -0.625738 3.95075 0
      vertex -1.23607 3.80423 17
    endloop
  endfacet
  facet normal 0.0784597 -0.996917 0
    outer loop
      vertex 0 4 0
      vertex 0 4 17
      vertex -0.625738 3.95075 17
    endloop
  endfacet
  facet normal 0.0784597 -0.996917 0
    outer loop
      vertex -0.625738 3.95075 0
      vertex 0 4 0
      vertex -0.625738 3.95075 17
    endloop
  endfacet
  facet normal -0.0784597 -0.996917 0
    outer loop
      vertex 0.625738 3.95075 0
      vertex 0.625738 3.95075 17
      vertex 0 4 17
    endloop
  endfacet
  facet normal -0.0784597 -0.996917 0
    outer loop
      vertex 0 4 0
      vertex 0.625738 3.95075 0
      vertex 0 4 17
    endloop
  endfacet
  facet normal -0.233445 -0.97237 0
    outer loop
      vertex 1.23607 3.80423 0
      vertex 1.23607 3.80423 17
      vertex 0.625738 3.95075 17
    endloop
  endfacet
  facet normal -0.233445 -0.97237 0
    outer loop
      vertex 0.625738 3.95075 0
      vertex 1.23607 3.80423 0
      vertex 0.625738 3.95075 17
    endloop
  endfacet
  facet normal -0.382683 -0.92388 0
    outer loop
      vertex 1.81596 3.56403 0
      vertex 1.81596 3.56403 17
      vertex 1.23607 3.80423 17
    endloop
  endfacet
  facet normal -0.382683 -0.92388 0
    outer loop
      vertex 1.23607 3.80423 0
      vertex 1.81596 3.56403 0
      vertex 1.23607 3.80423 17
    endloop
  endfacet
  facet normal -0.522498 -0.85264 0
    outer loop
      vertex 2.35114 3.23607 0
      vertex 2.35114 3.23607 17
      vertex 1.81596 3.56403 17
    endloop
  endfacet
  facet normal -0.522498 -0.85264 0
    outer loop
      vertex 1.81596 3.56403 0
      vertex 2.35114 3.23607 0
      vertex 1.81596 3.56403 17
    endloop
  endfacet
  facet normal -0.649448 -0.760406 0
    outer loop
      vertex 2.82843 2.82843 0
      vertex 2.82843 2.82843 17
      vertex 2.35114 3.23607 17
    endloop
  endfacet
  facet normal -0.649448 -0.760406 0
    outer loop
      vertex 2.35114 3.23607 0
      vertex 2.82843 2.82843 0
      vertex 2.35114 3.23607 17
    endloop
  endfacet
  facet normal -0.760406 -0.649448 0
    outer loop
      vertex 3.23607 2.35114 17
      vertex 2.82843 2.82843 17
      vertex 3.23607 2.35114 0
    endloop
  endfacet
  facet normal -0.760406 -0.649448 0
    outer loop
      vertex 3.23607 2.35114 0
      vertex 2.82843 2.82843 17
      vertex 2.82843 2.82843 0
    endloop
  endfacet
  facet normal -0.85264 -0.522498 0
    outer loop
      vertex 3.56403 1.81596 17
      vertex 3.23607 2.35114 17
      vertex 3.56403 1.81596 0
    endloop
  endfacet
  facet normal -0.85264 -0.522498 0
    outer loop
      vertex 3.56403 1.81596 0
      vertex 3.23607 2.35114 17
      vertex 3.23607 2.35114 0
    endloop
  endfacet
  facet normal -0.92388 -0.382683 0
    outer loop
      vertex 3.80423 1.23607 17
      vertex 3.56403 1.81596 17
      vertex 3.80423 1.23607 0
    endloop
  endfacet
  facet normal -0.92388 -0.382683 0
    outer loop
      vertex 3.80423 1.23607 0
      vertex 3.56403 1.81596 17
      vertex 3.56403 1.81596 0
    endloop
  endfacet
  facet normal -0.97237 -0.233445 0
    outer loop
      vertex 3.95075 0.625738 17
      vertex 3.80423 1.23607 17
      vertex 3.95075 0.625738 0
    endloop
  endfacet
  facet normal -0.97237 -0.233445 0
    outer loop
      vertex 3.95075 0.625738 0
      vertex 3.80423 1.23607 17
      vertex 3.80423 1.23607 0
    endloop
  endfacet
  facet normal -0.996917 -0.0784597 0
    outer loop
      vertex 4 0 17
      vertex 3.95075 0.625738 17
      vertex 4 0 0
    endloop
  endfacet
  facet normal -0.996917 -0.0784597 0
    outer loop
      vertex 4 0 0
      vertex 3.95075 0.625738 17
      vertex 3.95075 0.625738 0
    endloop
  endfacet
  facet normal -0.996917 0.0784597 0
    outer loop
      vertex 4 0 17
      vertex 4 0 0
      vertex 3.95075 -0.625738 17
    endloop
  endfacet
  facet normal -0.996917 0.0784597 0
    outer loop
      vertex 3.95075 -0.625738 17
      vertex 4 0 0
      vertex 3.95075 -0.625738 0
    endloop
  endfacet
  facet normal -0.97237 0.233445 0
    outer loop
      vertex 3.95075 -0.625738 17
      vertex 3.95075 -0.625738 0
      vertex 3.80423 -1.23607 17
    endloop
  endfacet
  facet normal -0.97237 0.233445 0
    outer loop
      vertex 3.80423 -1.23607 17
      vertex 3.95075 -0.625738 0
      vertex 3.80423 -1.23607 0
    endloop
  endfacet
  facet normal -0.92388 0.382683 0
    outer loop
      vertex 3.80423 -1.23607 17
      vertex 3.80423 -1.23607 0
      vertex 3.56403 -1.81596 17
    endloop
  endfacet
  facet normal -0.92388 0.382683 0
    outer loop
      vertex 3.56403 -1.81596 17
      vertex 3.80423 -1.23607 0
      vertex 3.56403 -1.81596 0
    endloop
  endfacet
  facet normal -0.85264 0.522498 0
    outer loop
      vertex 3.56403 -1.81596 17
      vertex 3.56403 -1.81596 0
      vertex 3.23607 -2.35114 17
    endloop
  endfacet
  facet normal -0.85264 0.522498 0
    outer loop
      vertex 3.23607 -2.35114 17
      vertex 3.56403 -1.81596 0
      vertex 3.23607 -2.35114 0
    endloop
  endfacet
  facet normal -0.760406 0.649448 0
    outer loop
      vertex 3.23607 -2.35114 17
      vertex 3.23607 -2.35114 0
      vertex 2.82843 -2.82843 17
    endloop
  endfacet
  facet normal -0.760406 0.649448 0
    outer loop
      vertex 2.82843 -2.82843 17
      vertex 3.23607 -2.35114 0
      vertex 2.82843 -2.82843 0
    endloop
  endfacet
  facet normal -0.649448 0.760406 0
    outer loop
      vertex 2.82843 -2.82843 17
      vertex 2.82843 -2.82843 0
      vertex 2.35114 -3.23607 17
    endloop
  endfacet
  facet normal -0.649448 0.760406 0
    outer loop
      vertex 2.35114 -3.23607 17
      vertex 2.82843 -2.82843 0
      vertex 2.35114 -3.23607 0
    endloop
  endfacet
  facet normal -0.522498 0.85264 0
    outer loop
      vertex 2.35114 -3.23607 17
      vertex 2.35114 -3.23607 0
      vertex 1.81596 -3.56403 17
    endloop
  endfacet
  facet normal -0.522498 0.85264 0
    outer loop
      vertex 1.81596 -3.56403 17
      vertex 2.35114 -3.23607 0
      vertex 1.81596 -3.56403 0
    endloop
  endfacet
  facet normal -0.382683 0.92388 0
    outer loop
      vertex 1.81596 -3.56403 17
      vertex 1.81596 -3.56403 0
      vertex 1.23607 -3.80423 17
    endloop
  endfacet
  facet normal -0.382683 0.92388 0
    outer loop
      vertex 1.23607 -3.80423 17
      vertex 1.81596 -3.56403 0
      vertex 1.23607 -3.80423 0
    endloop
  endfacet
  facet normal -0.233445 0.97237 0
    outer loop
      vertex 1.23607 -3.80423 17
      vertex 1.23607 -3.80423 0
      vertex 0.625738 -3.95075 17
    endloop
  endfacet
  facet normal -0.233445 0.97237 0
    outer loop
      vertex 0.625738 -3.95075 17
      vertex 1.23607 -3.80423 0
      vertex 0.625738 -3.95075 0
    endloop
  endfacet
  facet normal -0.0784597 0.996917 0
    outer loop
      vertex 0.625738 -3.95075 17
      vertex 0.625738 -3.95075 0
      vertex 0 -4 17
    endloop
  endfacet
  facet normal -0.0784597 0.996917 0
    outer loop
      vertex 0 -4 17
      vertex 0.625738 -3.95075 0
      vertex 0 -4 0
    endloop
  endfacet
  facet normal 0.0784597 0.996917 0
    outer loop
      vertex 0 -4 17
      vertex 0 -4 0
      vertex -0.625738 -3.95075 17
    endloop
  endfacet
  facet normal 0.0784597 0.996917 0
    outer loop
      vertex -0.625738 -3.95075 17
      vertex 0 -4 0
      vertex -0.625738 -3.95075 0
    endloop
  endfacet
  facet normal 0.233445 0.97237 0
    outer loop
      vertex -0.625738 -3.95075 17
      vertex -0.625738 -3.95075 0
      vertex -1.23607 -3.80423 17
    endloop
  endfacet
  facet normal 0.233445 0.97237 0
    outer loop
      vertex -1.23607 -3.80423 17
      vertex -0.625738 -3.95075 0
      vertex -1.23607 -3.80423 0
    endloop
  endfacet
  facet normal 0.382683 0.92388 0
    outer loop
      vertex -1.23607 -3.80423 17
      vertex -1.23607 -3.80423 0
      vertex -1.81596 -3.56403 17
    endloop
  endfacet
  facet normal 0.382683 0.92388 0
    outer loop
      vertex -1.81596 -3.56403 17
      vertex -1.23607 -3.80423 0
      vertex -1.81596 -3.56403 0
    endloop
  endfacet
  facet normal 0.522498 0.85264 0
    outer loop
      vertex -1.81596 -3.56403 17
      vertex -1.81596 -3.56403 0
      vertex -2.35114 -3.23607 17
    endloop
  endfacet
  facet normal 0.522498 0.85264 0
    outer loop
      vertex -2.35114 -3.23607 17
      vertex -1.81596 -3.56403 0
      vertex -2.35114 -3.23607 0
    endloop
  endfacet
  facet normal 0.649448 0.760406 0
    outer loop
      vertex -2.35114 -3.23607 17
      vertex -2.35114 -3.23607 0
      vertex -2.82843 -2.82843 17
    endloop
  endfacet
  facet normal 0.649448 0.760406 0
    outer loop
      vertex -2.82843 -2.82843 17
      vertex -2.35114 -3.23607 0
      vertex -2.82843 -2.82843 0
    endloop
  endfacet
  facet normal 0.760406 0.649448 0
    outer loop
      vertex -3.23607 -2.35114 17
      vertex -2.82843 -2.82843 17
      vertex -2.82843 -2.82843 0
    endloop
  endfacet
  facet normal 0.760406 0.649448 0
    outer loop
      vertex -3.23607 -2.35114 0
      vertex -3.23607 -2.35114 17
      vertex -2.82843 -2.82843 0
    endloop
  endfacet
  facet normal 0.85264 0.522498 0
    outer loop
      vertex -3.56403 -1.81596 17
      vertex -3.23607 -2.35114 17
      vertex -3.23607 -2.35114 0
    endloop
  endfacet
  facet normal 0.85264 0.522498 0
    outer loop
      vertex -3.56403 -1.81596 0
      vertex -3.56403 -1.81596 17
      vertex -3.23607 -2.35114 0
    endloop
  endfacet
  facet normal 0.92388 0.382683 0
    outer loop
      vertex -3.80423 -1.23607 17
      vertex -3.56403 -1.81596 17
      vertex -3.56403 -1.81596 0
    endloop
  endfacet
  facet normal 0.92388 0.382683 0
    outer loop
      vertex -3.80423 -1.23607 0
      vertex -3.80423 -1.23607 17
      vertex -3.56403 -1.81596 0
    endloop
  endfacet
  facet normal 0.97237 0.233445 0
    outer loop
      vertex -3.95075 -0.625738 17
      vertex -3.80423 -1.23607 17
      vertex -3.80423 -1.23607 0
    endloop
  endfacet
  facet normal 0.97237 0.233445 0
    outer loop
      vertex -3.95075 -0.625738 0
      vertex -3.95075 -0.625738 17
      vertex -3.80423 -1.23607 0
    endloop
  endfacet
  facet normal 1 0 0
    outer loop
      vertex -47.4 10 3
      vertex -47.4 10 17
      vertex -47.4 -10 17
    endloop
  endfacet
  facet normal 1 0 0
    outer loop
      vertex -47.4 -10 3
      vertex -47.4 10 3
      vertex -47.4 -10 17
    endloop
  endfacet
  facet normal 0 1 0
    outer loop
      vertex -12.4 -10 17
      vertex -12.4 -10 3
      vertex -47.4 -10 17
    endloop
  endfacet
  facet normal 0 1 0
    outer loop
      vertex -47.4 -10 17
      vertex -12.4 -10 3
      vertex -47.4 -10 3
    endloop
  endfacet
  facet normal -1 0 0
    outer loop
      vertex -12.4 10 17
      vertex -12.4 10 3
      vertex -12.4 -10 17
    endloop
  endfacet
  facet normal -1 0 0
    outer loop
      vertex -12.4 -10 17
      vertex -12.4 10 3
      vertex -12.4 -10 3
    endloop
  endfacet
  facet normal 0 -1 0
    outer loop
      vertex -12.4 10 3
      vertex -12.4 10 17
      vertex -47.4 10 17
    endloop
  endfacet
  facet normal 0 -1 0
    outer loop
      vertex -47.4 10 3
      vertex -12.4 10 3
      vertex -47.4 10 17
    endloop
  endfacet
  facet normal 1 0 0
    outer loop
      vertex 14.5 6.5 3
      vertex 14.5 6.5 17
      vertex 14.5 -6.5 17
    endloop
  endfacet
  facet normal 1 0 0
    outer loop
      vertex 14.5 -6.5 3
      vertex 14.5 6.5 3
      vertex 14.5 -6.5 17
    endloop
  endfacet
  facet normal 0 1 0
    outer loop
      vertex 37.5 -6.5 17
      vertex 37.5 -6.5 10.5
      vertex 14.5 -6.5 17
    endloop
  endfacet
  facet normal 0 1 0
    outer loop
      vertex 41.5 -6.5 3
      vertex 37.5 -6.5 10.5
      vertex 41.5 -6.5 10.5
    endloop
  endfacet
  facet normal 0 1 0
    outer loop
      vertex 14.5 -6.5 17
      vertex 37.5 -6.5 10.5
      vertex 41.5 -6.5 3
    endloop
  endfacet
  facet normal 0 1 0
    outer loop
      vertex 14.5 -6.5 17
      vertex 41.5 -6.5 3
      vertex 14.5 -6.5 3
    endloop
  endfacet
  facet normal -1 0 0
    outer loop
      vertex 37.5 6.5 17
      vertex 37.5 6.5 10.5
      vertex 37.5 -6.5 17
    endloop
  endfacet
  facet normal -1 0 0
    outer loop
      vertex 37.5 -6.5 17
      vertex 37.5 6.5 10.5
      vertex 37.5 -6.5 10.5
    endloop
  endfacet
  facet normal 0 -1 0
    outer loop
      vertex 41.5 6.5 3
      vertex 41.5 6.5 10.5
      vertex 37.5 6.5 10.5
    endloop
  endfacet
  facet normal 0 -1 0
    outer loop
      vertex 14.5 6.5 17
      vertex 41.5 6.5 3
      vertex 37.5 6.5 10.5
    endloop
  endfacet
  facet normal 0 -1 0
    outer loop
      vertex 37.5 6.5 17
      vertex 14.5 6.5 17
      vertex 37.5 6.5 10.5
    endloop
  endfacet
  facet normal 0 -1 0
    outer loop
      vertex 14.5 6.5 17
      vertex 14.5 6.5 3
      vertex 41.5 6.5 3
    endloop
  endfacet
  facet normal 0 0 1
    outer loop
      vertex 41.5 -6.5 3
      vertex 41.5 6.5 3
      vertex 14.5 6.5 3
    endloop
  endfacet
  facet normal 0 0 1
    outer loop
      vertex 14.5 -6.5 3
      vertex 41.5 -6.5 3
      vertex 14.5 6.5 3
    endloop
  endfacet
  facet normal 0 0 -1
    outer loop
      vertex 41.5 6.5 10.5
      vertex 41.5 -6.5 10.5
      vertex 37.5 6.5 10.5
    endloop
  endfacet
  facet normal 0 0 -1
    outer loop
      vertex 37.5 6.5 10.5
      vertex 41.5 -6.5 10.5
      vertex 37.5 -6.5 10.5
    endloop
  endfacet
  facet normal 0 0 1
    outer loop
      vertex -12.4 -10 3
      vertex -12.4 10 3
      vertex -47.4 10 3
    endloop
  endfacet
  facet normal 0 0 1
    outer loop
      vertex -47.4 -10 3
      vertex -12.4 -10 3
      vertex -47.4 10 3
    endloop
  endfacet
endsolid OpenSCAD_Model
